<?xml version="1.0" encoding="UTF-8" standalone="no"?>
<!-- Created with Inkscape (http://www.inkscape.org/) -->
<svg
   xmlns:dc="http://purl.org/dc/elements/1.1/"
   xmlns:cc="http://creativecommons.org/ns#"
   xmlns:rdf="http://www.w3.org/1999/02/22-rdf-syntax-ns#"
   xmlns:svg="http://www.w3.org/2000/svg"
   xmlns="http://www.w3.org/2000/svg"
   xmlns:xlink="http://www.w3.org/1999/xlink"
   xmlns:sodipodi="http://sodipodi.sourceforge.net/DTD/sodipodi-0.dtd"
   xmlns:inkscape="http://www.inkscape.org/namespaces/inkscape"
   width="384"
   height="128"
   id="svg2"
   sodipodi:version="0.32"
   inkscape:version="0.46"
   version="1.0"
   sodipodi:docname="logo_text.svg"
   inkscape:output_extension="org.inkscape.output.svg.inkscape"
   inkscape:export-filename="D:\Garage\projekte\blackfisk\trunk\graphic\logo_text.png"
   inkscape:export-xdpi="90"
   inkscape:export-ydpi="90">
  <defs
     id="defs4">
    <linearGradient
       id="linearGradient4847">
      <stop
         id="stop4853"
         offset="0"
         style="stop-color:#00e5ea;stop-opacity:1;" />
      <stop
         style="stop-color:#10f6fb;stop-opacity:0;"
         offset="1"
         id="stop4855" />
    </linearGradient>
    <inkscape:perspective
       sodipodi:type="inkscape:persp3d"
       inkscape:vp_x="0 : 526.18109 : 1"
       inkscape:vp_y="0 : 1000 : 0"
       inkscape:vp_z="744.09448 : 526.18109 : 1"
       inkscape:persp3d-origin="372.04724 : 350.78739 : 1"
       id="perspective10" />
    <linearGradient
       spreadMethod="repeat"
       gradientUnits="userSpaceOnUse"
       y2="128.38374"
       x2="243.38695"
       y1="128.38374"
       x1="11.716213"
       id="linearGradient4813"
       xlink:href="#linearGradient4807"
       inkscape:collect="always"
       gradientTransform="matrix(0.461944,0,0,0.461944,-18.457591,94.830902)" />
    <radialGradient
       gradientUnits="userSpaceOnUse"
       gradientTransform="matrix(0.461944,0,0,0.4835334,-18.457591,92.059154)"
       r="115.83537"
       fy="128.38375"
       fx="127.55158"
       cy="128.38375"
       cx="127.55158"
       id="radialGradient3348"
       xlink:href="#linearGradient3342"
       inkscape:collect="always" />
    <linearGradient
       gradientUnits="userSpaceOnUse"
       y2="128.30013"
       x2="243.38695"
       y1="128.30013"
       x1="11.716213"
       id="linearGradient3330"
       xlink:href="#linearGradient3324"
       inkscape:collect="always"
       gradientTransform="matrix(0.461944,0,0,0.461944,-18.457591,94.830902)" />
    <inkscape:perspective
       id="perspective2527"
       inkscape:persp3d-origin="372.04724 : 350.78739 : 1"
       inkscape:vp_z="744.09448 : 526.18109 : 1"
       inkscape:vp_y="0 : 1000 : 0"
       inkscape:vp_x="0 : 526.18109 : 1"
       sodipodi:type="inkscape:persp3d" />
    <linearGradient
       id="linearGradient3324"
       inkscape:collect="always">
      <stop
         id="stop3326"
         offset="0"
         style="stop-color:#ffffff;stop-opacity:1;" />
      <stop
         id="stop3328"
         offset="1"
         style="stop-color:#ffffff;stop-opacity:0;" />
    </linearGradient>
    <linearGradient
       id="linearGradient3342"
       inkscape:collect="always">
      <stop
         id="stop3344"
         offset="0"
         style="stop-color:#ffffff;stop-opacity:1;" />
      <stop
         id="stop3346"
         offset="1"
         style="stop-color:#ffffff;stop-opacity:0;" />
    </linearGradient>
    <linearGradient
       id="linearGradient4807"
       inkscape:collect="always">
      <stop
         id="stop4809"
         offset="0"
         style="stop-color:#ffffff;stop-opacity:1;" />
      <stop
         id="stop4811"
         offset="1"
         style="stop-color:#ffffff;stop-opacity:0;" />
    </linearGradient>
    <linearGradient
       inkscape:collect="always"
       xlink:href="#linearGradient4847"
       id="linearGradient4791"
       x1="160.56393"
       y1="45.834427"
       x2="433.67978"
       y2="45.834427"
       gradientUnits="userSpaceOnUse" />
    <linearGradient
       inkscape:collect="always"
       xlink:href="#linearGradient4847"
       id="linearGradient4857"
       gradientUnits="userSpaceOnUse"
       x1="160.56393"
       y1="45.834427"
       x2="433.67978"
       y2="45.834427" />
    <linearGradient
       inkscape:collect="always"
       xlink:href="#linearGradient4847"
       id="linearGradient4859"
       gradientUnits="userSpaceOnUse"
       x1="160.56393"
       y1="45.834427"
       x2="433.67978"
       y2="45.834427" />
    <linearGradient
       inkscape:collect="always"
       xlink:href="#linearGradient4847"
       id="linearGradient4861"
       gradientUnits="userSpaceOnUse"
       x1="160.56393"
       y1="45.834427"
       x2="433.67978"
       y2="45.834427" />
  </defs>
  <sodipodi:namedview
     id="base"
     pagecolor="#ffffff"
     bordercolor="#666666"
     borderopacity="1.0"
     inkscape:pageopacity="0.0"
     inkscape:pageshadow="2"
     inkscape:zoom="1.4921875"
     inkscape:cx="217.80105"
     inkscape:cy="64"
     inkscape:document-units="px"
     inkscape:current-layer="layer1"
     showgrid="false"
     inkscape:window-width="1024"
     inkscape:window-height="721"
     inkscape:window-x="-4"
     inkscape:window-y="-4" />
  <metadata
     id="metadata7">
    <rdf:RDF>
      <cc:Work
         rdf:about="">
        <dc:format>image/svg+xml</dc:format>
        <dc:type
           rdf:resource="http://purl.org/dc/dcmitype/StillImage" />
      </cc:Work>
    </rdf:RDF>
  </metadata>
  <g
     inkscape:label="Ebene 1"
     inkscape:groupmode="layer"
     id="layer1">
    <g
       id="g2532"
       inkscape:label="Ebene 1"
       transform="matrix(0.9312925,0,0,0.9312925,15.769269,-79.536495)">
      <path
         transform="matrix(0.461944,0,0,0.461944,-18.457591,86.51591)"
         sodipodi:open="true"
         sodipodi:end="4.4494955"
         sodipodi:start="1.3317553"
         d="M 29.367323,202.07874 A 3.7795277,0 0 0 1 27.490233,202.07874"
         sodipodi:ry="0"
         sodipodi:rx="3.7795277"
         sodipodi:cy="202.07874"
         sodipodi:cx="28.472441"
         id="path2481"
         style="opacity:1;fill:none;fill-opacity:1;fill-rule:nonzero;stroke:#000000;stroke-width:5;stroke-linejoin:miter;stroke-miterlimit:4;stroke-dasharray:none;stroke-dashoffset:0;stroke-opacity:1"
         sodipodi:type="arc" />
      <path
         transform="matrix(0.461944,0,0,0.461944,-18.457591,86.51591)"
         sodipodi:open="true"
         sodipodi:end="4.4494955"
         sodipodi:start="1.3317553"
         d="M 24.931548,201.07086 A 1.007874,0 0 0 1 24.430991,201.07086"
         sodipodi:ry="0"
         sodipodi:rx="1.007874"
         sodipodi:cy="201.07086"
         sodipodi:cx="24.692913"
         id="path2483"
         style="opacity:1;fill:none;fill-opacity:1;fill-rule:nonzero;stroke:#000000;stroke-width:5;stroke-linejoin:miter;stroke-miterlimit:4;stroke-dasharray:none;stroke-dashoffset:0;stroke-opacity:1"
         sodipodi:type="arc" />
      <g
         style="fill:none;fill-opacity:1;stroke:#1b86ff;stroke-opacity:1"
         id="g3301"
         transform="matrix(0.461944,0,0,0.461944,-18.457591,94.830902)">
        <path
           sodipodi:type="arc"
           style="opacity:1;fill:none;fill-opacity:1;fill-rule:nonzero;stroke:#1b86ff;stroke-width:5;stroke-linejoin:miter;stroke-miterlimit:4;stroke-dasharray:none;stroke-dashoffset:0;stroke-opacity:1"
           id="path3173"
           sodipodi:cx="135.55905"
           sodipodi:cy="160.75591"
           sodipodi:rx="74.582672"
           sodipodi:ry="86.173225"
           d="M 96.050172,233.84499 A 74.582672,86.173225 0 1 1 176.6856,232.64388"
           transform="translate(-7.5590551,-70.409449)"
           sodipodi:start="2.1290817"
           sodipodi:end="7.2699135"
           sodipodi:open="true" />
        <path
           sodipodi:type="arc"
           style="opacity:1;fill:none;fill-opacity:1;fill-rule:nonzero;stroke:#1b86ff;stroke-width:4.75820971;stroke-linejoin:miter;stroke-miterlimit:4;stroke-dasharray:none;stroke-dashoffset:0;stroke-opacity:1"
           id="path2471"
           sodipodi:cx="84.157478"
           sodipodi:cy="199.05511"
           sodipodi:rx="45.390236"
           sodipodi:ry="17.246937"
           d="M 96.046356,182.4103 A 45.390236,17.246937 0 0 1 104.75428,214.42417"
           sodipodi:start="4.9774062"
           sodipodi:end="7.3829883"
           transform="matrix(0.9971582,0,0,1.1073598,117.01806,-28.54184)"
           sodipodi:open="true" />
        <path
           sodipodi:type="arc"
           style="opacity:1;fill:none;fill-opacity:1;fill-rule:nonzero;stroke:#1b86ff;stroke-width:5.96820688;stroke-linejoin:miter;stroke-miterlimit:4;stroke-dasharray:none;stroke-dashoffset:0;stroke-opacity:1"
           id="path2473"
           sodipodi:cx="84.157478"
           sodipodi:cy="199.05511"
           sodipodi:rx="34.021442"
           sodipodi:ry="22.591297"
           d="M 117.59043,203.23883 A 34.021442,22.591297 0 1 1 58.822776,183.97691"
           sodipodi:start="0.18626665"
           sodipodi:end="3.8723507"
           sodipodi:open="true"
           transform="matrix(0.725782,0,0,0.9670437,20.686025,22.15701)" />
        <path
           sodipodi:type="arc"
           style="opacity:1;fill:none;fill-opacity:1;fill-rule:nonzero;stroke:#1b86ff;stroke-width:5;stroke-linejoin:miter;stroke-miterlimit:4;stroke-dasharray:none;stroke-dashoffset:0;stroke-opacity:1"
           id="path2475"
           sodipodi:cx="84.157478"
           sodipodi:cy="199.05511"
           sodipodi:rx="24.188976"
           sodipodi:ry="18.64567"
           d="M 96.047376,182.81746 A 24.188976,18.64567 0 1 1 60.36441,202.41479"
           sodipodi:start="5.2262485"
           sodipodi:end="9.2436032"
           transform="translate(133.42566,23.089909)"
           sodipodi:open="true" />
        <path
           sodipodi:type="arc"
           style="opacity:1;fill:none;fill-opacity:1;fill-rule:nonzero;stroke:#1b86ff;stroke-width:5;stroke-linejoin:miter;stroke-miterlimit:4;stroke-dasharray:none;stroke-dashoffset:0;stroke-opacity:1"
           id="path2477"
           sodipodi:cx="84.157478"
           sodipodi:cy="199.05511"
           sodipodi:rx="37.291336"
           sodipodi:ry="18.141733"
           d="M 59.886515,212.82848 A 37.291336,18.141733 0 0 1 102.0734,183.14423"
           sodipodi:start="2.2794962"
           sodipodi:end="5.2135354"
           transform="translate(-28.842051,-34.358909)"
           sodipodi:open="true" />
        <path
           sodipodi:type="arc"
           style="opacity:1;fill:none;fill-opacity:1;fill-rule:nonzero;stroke:#1b86ff;stroke-width:5;stroke-linejoin:miter;stroke-miterlimit:4;stroke-dasharray:none;stroke-dashoffset:0;stroke-opacity:1"
           id="path2479"
           sodipodi:cx="84.157478"
           sodipodi:cy="199.05511"
           sodipodi:rx="32.755905"
           sodipodi:ry="13.606299"
           d="M 63.073165,188.64228 A 32.755905,13.606299 0 1 1 81.448222,212.61479"
           transform="translate(119.81937,-38.390405)"
           sodipodi:open="true"
           sodipodi:start="4.0130921"
           sodipodi:end="7.9367867" />
        <path
           sodipodi:type="arc"
           style="opacity:1;fill:none;fill-opacity:1;fill-rule:nonzero;stroke:#1b86ff;stroke-width:5;stroke-linejoin:miter;stroke-miterlimit:4;stroke-dasharray:none;stroke-dashoffset:0;stroke-opacity:1"
           id="path2487"
           sodipodi:cx="84.157478"
           sodipodi:cy="199.05511"
           sodipodi:rx="23.181103"
           sodipodi:ry="21.669292"
           d="M 106.51546,204.77826 A 23.181103,21.669292 0 0 1 60.976378,199.04472"
           sodipodi:start="0.26728413"
           sodipodi:end="3.1420724"
           transform="translate(90.087083,25.971799)"
           sodipodi:open="true" />
        <path
           sodipodi:type="arc"
           style="opacity:1;fill:none;fill-opacity:1;fill-rule:nonzero;stroke:#1b86ff;stroke-width:5;stroke-linejoin:miter;stroke-miterlimit:4;stroke-dasharray:none;stroke-dashoffset:0;stroke-opacity:1"
           id="path2489"
           sodipodi:cx="84.157478"
           sodipodi:cy="199.05511"
           sodipodi:rx="30.236219"
           sodipodi:ry="18.141731"
           d="M 102.16847,213.627 A 30.236219,18.141731 0 1 1 82.434395,180.94287"
           sodipodi:start="0.93268944"
           sodipodi:end="4.6553707"
           transform="translate(-44.968035,-2.2486729)"
           sodipodi:open="true" />
        <path
           sodipodi:type="arc"
           style="opacity:1;fill:none;fill-opacity:1;fill-rule:nonzero;stroke:#1b86ff;stroke-width:5.96820688;stroke-linejoin:miter;stroke-miterlimit:4;stroke-dasharray:none;stroke-dashoffset:0;stroke-opacity:1"
           id="path2491"
           sodipodi:cx="84.157478"
           sodipodi:cy="199.05511"
           sodipodi:rx="31.938431"
           sodipodi:ry="27.281296"
           d="M 114.9939,191.95055 A 31.938431,27.281296 0 1 1 54.349452,189.25822"
           sodipodi:start="6.0197292"
           sodipodi:end="9.7920885"
           transform="matrix(0.725782,0,0,0.9670437,66.945425,33.665295)"
           sodipodi:open="true" />
      </g>
      <path
         transform="matrix(0.461944,0,0,0.461944,-21.94945,93.143168)"
         d="M 131.52756,76.09449 A 28.976377,36.787403 0 1 1 73.5748,76.09449 A 28.976377,36.787403 0 1 1 131.52756,76.09449 z"
         sodipodi:ry="36.787403"
         sodipodi:rx="28.976377"
         sodipodi:cy="76.09449"
         sodipodi:cx="102.55118"
         id="path3265"
         style="opacity:1;fill:#000000;fill-opacity:1;fill-rule:nonzero;stroke:#000000;stroke-width:5;stroke-linejoin:miter;stroke-miterlimit:4;stroke-dasharray:none;stroke-dashoffset:0;stroke-opacity:1"
         sodipodi:type="arc" />
      <path
         transform="matrix(0.461944,0,0,0.461944,9.1281029,93.143168)"
         d="M 131.52756,76.09449 A 28.976377,36.787403 0 1 1 73.5748,76.09449 A 28.976377,36.787403 0 1 1 131.52756,76.09449 z"
         sodipodi:ry="36.787403"
         sodipodi:rx="28.976377"
         sodipodi:cy="76.09449"
         sodipodi:cx="102.55118"
         id="path3271"
         style="opacity:1;fill:#000000;fill-opacity:1;fill-rule:nonzero;stroke:#000000;stroke-width:5;stroke-linejoin:miter;stroke-miterlimit:4;stroke-dasharray:none;stroke-dashoffset:0;stroke-opacity:1"
         sodipodi:type="arc" />
      <path
         transform="matrix(0.461944,0,0,0.461944,-19.621545,90.40788)"
         d="M 178.89763,64 A 10.582677,13.102363 0 1 1 157.73228,64 A 10.582677,13.102363 0 1 1 178.89763,64 z"
         sodipodi:ry="13.102363"
         sodipodi:rx="10.582677"
         sodipodi:cy="64"
         sodipodi:cx="168.31496"
         id="path3273"
         style="opacity:1;fill:#ffffff;fill-opacity:1;fill-rule:nonzero;stroke:none;stroke-width:5;stroke-linejoin:miter;stroke-miterlimit:4;stroke-dasharray:none;stroke-dashoffset:0;stroke-opacity:1"
         sodipodi:type="arc" />
      <path
         transform="matrix(0.461944,0,0,0.461944,-14.034567,97.158804)"
         d="M 173.35433,64 A 5.0393696,5.5433068 0 1 1 163.27559,64 A 5.0393696,5.5433068 0 1 1 173.35433,64 z"
         sodipodi:ry="5.5433068"
         sodipodi:rx="5.0393696"
         sodipodi:cy="64"
         sodipodi:cx="168.31496"
         id="path3277"
         style="opacity:1;fill:#ffffff;fill-opacity:1;fill-rule:nonzero;stroke:none;stroke-width:5;stroke-linejoin:miter;stroke-miterlimit:4;stroke-dasharray:none;stroke-dashoffset:0;stroke-opacity:1"
         sodipodi:type="arc" />
      <path
         transform="matrix(0.461944,0,0,0.461944,-50.931887,90.40788)"
         d="M 178.89763,64 A 10.582677,13.102363 0 1 1 157.73228,64 A 10.582677,13.102363 0 1 1 178.89763,64 z"
         sodipodi:ry="13.102363"
         sodipodi:rx="10.582677"
         sodipodi:cy="64"
         sodipodi:cx="168.31496"
         id="path3279"
         style="opacity:1;fill:#ffffff;fill-opacity:1;fill-rule:nonzero;stroke:none;stroke-width:5;stroke-linejoin:miter;stroke-miterlimit:4;stroke-dasharray:none;stroke-dashoffset:0;stroke-opacity:1"
         sodipodi:type="arc" />
      <path
         transform="matrix(0.461944,0,0,0.461944,-45.34491,97.158804)"
         d="M 173.35433,64 A 5.0393696,5.5433068 0 1 1 163.27559,64 A 5.0393696,5.5433068 0 1 1 173.35433,64 z"
         sodipodi:ry="5.5433068"
         sodipodi:rx="5.0393696"
         sodipodi:cy="64"
         sodipodi:cx="168.31496"
         id="path3281"
         style="opacity:1;fill:#ffffff;fill-opacity:1;fill-rule:nonzero;stroke:none;stroke-width:5;stroke-linejoin:miter;stroke-miterlimit:4;stroke-dasharray:none;stroke-dashoffset:0;stroke-opacity:1"
         sodipodi:type="arc" />
      <path
         id="path3320"
         d="M 38.517772,209.88948 C 35.295705,208.81956 33.067051,206.54264 31.88824,203.11636 C 31.18881,201.08343 31.069292,199.18937 31.506914,197.07326 C 31.713893,196.07242 31.883242,195.22481 31.883242,195.18969 C 31.883242,195.11144 29.9008,194.60497 29.594549,194.60497 C 29.473446,194.60497 29.304817,194.99781 29.219834,195.47794 C 28.824521,197.71119 26.694552,200.43541 24.447428,201.58181 C 21.478989,203.09619 17.703015,203.11466 14.349364,201.63118 C 12.658194,200.88308 10.427881,198.52976 9.7863639,196.81649 C 8.7769569,194.12071 9.1663559,191.52151 10.93895,189.12306 L 11.807559,187.94778 L 10.887323,187.17519 L 9.9670879,186.40262 L 9.3044699,187.03743 C 8.5978749,187.7144 7.3574379,189.91045 7.1285099,190.88972 C 6.9719199,191.55956 5.8076439,192.05854 3.2984211,192.53118 C 1.2095437,192.92464 -4.1338192,192.67362 -5.945242,192.09695 C -10.315765,190.70555 -13.045358,188.26893 -13.045358,185.75894 C -13.045358,184.61802 -12.22457,183.10216 -11.044258,182.06322 C -9.0928116,180.34548 -4.9904748,178.78205 -2.407427,178.77165 C -1.0602647,178.76622 -0.85270014,178.54089 -1.0406108,177.28781 L -1.201564,176.21452 L -2.3099133,176.21452 C -3.4546335,176.21452 -5.2936957,175.39866 -6.9461374,174.15776 C -7.8871355,173.45112 -8.8551259,171.85348 -8.8551259,171.007 C -8.8551259,168.51529 -5.4674924,165.98758 -0.35826664,164.66699 C 2.8622993,163.83458 8.5908869,163.62838 12.116794,164.21795 L 14.531724,164.62175 L 16.36991,166.58644 C 17.380908,167.66703 18.992562,169.19215 19.951359,169.97561 L 21.694628,171.4001 L 22.472977,170.49004 C 22.90107,169.98951 23.229337,169.5149 23.20246,169.43535 C 23.175582,169.3558 22.2671,168.56828 21.183613,167.6853 C 15.568073,163.10895 10.881879,155.39745 8.8505869,147.39038 C 6.8252789,139.4069 7.1234969,130.63622 9.6823939,122.92658 C 14.464395,108.51902 25.834553,98.957603 39.216144,98.091012 C 42.753166,97.861954 47.334574,98.567351 50.694515,99.858321 C 61.499217,104.00978 69.509311,113.67569 72.590801,126.28092 C 73.526299,130.10769 73.669441,131.53244 73.654966,136.87289 C 73.642063,141.62968 73.583592,142.3811 73.018166,145.05545 C 71.126954,154.00046 67.442788,160.82137 61.431391,166.50731 L 58.821666,168.97576 L 59.494478,169.78484 C 59.864536,170.22984 60.2604,170.60149 60.374181,170.61073 C 60.742706,170.64067 63.791039,168.01228 65.00046,166.62179 C 65.647503,165.87786 66.222332,165.31462 66.277846,165.37014 C 66.333361,165.42566 66.866805,165.31963 67.463273,165.13453 C 70.691215,164.1328 76.966235,163.81539 80.906719,164.45449 C 85.688069,165.23 89.615323,167.29703 89.615323,169.03812 C 89.615323,170.30083 87.640477,171.75416 84.49393,172.80704 C 82.639219,173.42766 78.073594,174.11939 75.832146,174.11939 L 74.483931,174.11939 L 74.483931,175.37511 L 74.483931,176.63081 L 78.615965,176.59726 C 82.478943,176.56589 82.899582,176.60589 85.075906,177.21164 C 88.403884,178.13793 91.356295,179.62867 92.692917,181.05762 C 94.119644,182.58292 94.309613,183.50921 93.484434,184.91727 C 92.372546,186.81456 89.511004,188.50981 85.737794,189.50659 C 84.644053,189.79553 83.700247,190.15946 83.640435,190.31533 C 83.503864,190.67122 83.986587,192.50986 84.21659,192.50986 C 84.310252,192.50986 85.147189,192.29918 86.076438,192.04166 C 88.035918,191.49866 88.402475,191.602 89.929123,193.12774 C 92.85549,196.05241 92.488786,199.95364 89.042691,202.5582 C 86.600883,204.40373 82.913843,205.18759 79.731222,204.53783 C 76.258846,203.8289 73.254649,201.69829 72.587458,199.4714 C 72.437672,198.97146 72.245604,198.56242 72.160645,198.56242 C 72.075685,198.56242 71.512556,198.7306 70.909254,198.93618 C 69.718894,199.34178 69.691309,199.46642 70.458528,200.97359 C 70.903506,201.84774 70.722545,202.4628 69.604027,203.87784 C 65.301474,209.32099 56.209594,208.33728 53.363539,202.12066 C 52.972332,201.26616 52.729609,200.15819 52.576012,198.52575 C 52.453903,197.2279 52.307443,196.09075 52.250559,195.9987 C 52.154525,195.84332 51.583502,195.88319 50.353812,196.13118 C 49.870545,196.22863 49.856539,196.31652 49.97597,198.50315 C 50.068339,200.1944 50.001284,201.15807 49.713221,202.27909 C 48.899751,205.44474 46.692122,208.22028 44.001089,209.46064 C 42.481594,210.16102 39.935229,210.36016 38.517772,209.88948 L 38.517772,209.88948 z M 28.274984,146.15644 C 29.798923,145.86013 32.03207,144.69818 33.589802,143.39103 C 36.266447,141.14496 38.322847,137.75177 39.374088,133.84661 C 40.086859,131.1988 40.137958,125.53611 39.471594,123.04151 C 37.366766,115.16188 31.896056,110.10197 25.481496,110.10197 C 18.994105,110.10197 13.480456,115.11341 11.489912,122.81911 C 10.804997,125.47054 10.640951,129.91981 11.139122,132.33347 C 12.754291,140.15908 17.721852,145.65254 23.851962,146.39214 C 25.350153,146.57291 26.428663,146.51544 28.274984,146.15644 L 28.274984,146.15644 z M 59.81812,146.02823 C 64.195966,144.82946 68.273474,140.57709 69.926491,135.48639 C 70.841866,132.66738 71.074758,131.12186 71.050567,128.02684 C 71.032509,125.71724 70.905375,124.64295 70.434237,122.81911 C 68.443697,115.11341 62.93005,110.10197 56.442653,110.10197 C 50.028096,110.10197 44.557381,115.16188 42.452556,123.04151 C 41.788143,125.52883 41.83751,131.19536 42.546696,133.84661 C 44.366668,140.65049 49.352729,145.72365 54.854403,146.3693 C 56.753657,146.59219 58.095239,146.50001 59.81812,146.02823 z"
         style="opacity:1;fill:#ffffff;fill-opacity:1;fill-rule:nonzero;stroke:none;stroke-width:5;stroke-linejoin:miter;stroke-miterlimit:4;stroke-dasharray:none;stroke-dashoffset:0;stroke-opacity:1" />
      <path
         id="path3322"
         d="M 38.517772,209.88948 C 35.295705,208.81956 33.067051,206.54264 31.88824,203.11636 C 31.18881,201.08343 31.069292,199.18937 31.506914,197.07326 C 31.713893,196.07242 31.883242,195.22481 31.883242,195.18969 C 31.883242,195.04396 29.748631,194.6019 29.572025,194.71105 C 29.466309,194.77639 29.255261,195.32922 29.103037,195.93956 C 28.720783,197.47223 27.93637,198.73665 26.581718,200.00377 C 25.23279,201.26553 24.025745,201.92398 22.180619,202.40458 C 19.659362,203.06127 16.391978,202.71147 14.093252,201.53876 C 12.493125,200.72243 10.382298,198.40803 9.7863639,196.81649 C 8.7984189,194.17803 9.1590699,191.5973 10.851854,189.19205 C 11.280085,188.58359 11.622888,188.00744 11.613645,187.91171 C 11.6044,187.81598 11.234429,187.43635 10.791484,187.06809 C 10.01556,186.42298 9.9694809,186.4136 9.5306009,186.81077 C 8.8383939,187.43722 7.7101209,189.29173 7.3140909,190.45402 C 6.9993869,191.37761 6.8395759,191.53383 5.8618019,191.87354 C 3.7388289,192.61118 1.9349192,192.81128 -1.3573923,192.67434 C -4.7259707,192.53422 -6.1704787,192.20866 -8.6511982,191.03047 C -11.209356,189.81551 -13.045358,187.61292 -13.045358,185.75894 C -13.045358,183.81238 -11.175986,181.66872 -8.2810004,180.2955 C -6.5415237,179.47039 -3.870998,178.77754 -2.407427,178.77165 C -1.0689831,178.76625 -0.87518744,178.55322 -1.063915,177.2947 L -1.2258957,176.21452 L -2.3932801,176.21452 C -3.5885394,176.21452 -5.1349649,175.5157 -6.9461374,174.15712 C -7.8868976,173.45145 -8.8551259,171.85372 -8.8551259,171.007 C -8.8551259,168.52201 -5.5068439,166.01731 -0.35826664,164.65087 C 1.7822297,164.08277 2.3538314,164.03142 6.7418489,164.01302 C 10.049136,163.99915 11.978545,164.09385 13.027196,164.32155 C 14.469456,164.63472 14.619708,164.73491 16.234767,166.46037 C 17.752346,168.08169 21.404841,171.32591 21.712623,171.32591 C 21.778809,171.32591 22.15065,170.89392 22.538937,170.36593 L 23.244906,169.40597 L 21.166608,167.68579 C 16.851765,164.11447 12.85903,158.48482 10.622648,152.81906 C 5.5679089,140.01314 6.7356989,125.60514 13.759325,114.11919 C 15.234445,111.70688 16.6212,109.95702 18.939543,107.5826 C 27.535378,98.778828 39.996248,95.747769 50.694515,99.858321 C 61.50762,104.01301 69.506907,113.66588 72.590801,126.28092 C 73.526299,130.10769 73.669441,131.53244 73.654966,136.87289 C 73.642087,141.62078 73.582934,142.38415 73.022423,145.03442 C 71.114356,154.05639 67.47807,160.78799 61.414533,166.52326 L 58.787952,169.00764 L 59.637786,169.85747 L 60.487607,170.70729 L 61.607813,169.80775 C 62.223912,169.313 63.494397,168.12168 64.431098,167.16038 C 65.367799,166.19906 66.258224,165.39265 66.409814,165.36833 C 66.56142,165.34401 67.313982,165.16126 68.082189,164.96221 C 71.824562,163.99251 78.630638,163.86572 82.398817,164.69552 C 86.154678,165.52261 89.615323,167.57739 89.615323,168.98036 C 89.615323,170.30201 87.697342,171.73512 84.49393,172.80704 C 82.639219,173.42766 78.073594,174.11939 75.832146,174.11939 L 74.483931,174.11939 L 74.483931,175.3549 L 74.483931,176.59037 L 78.615965,176.57703 C 82.445554,176.56467 82.918388,176.61113 85.075906,177.21164 C 88.403884,178.13793 91.356295,179.62867 92.692917,181.05762 C 94.119644,182.58292 94.309613,183.50921 93.484434,184.91727 C 92.383974,186.79505 90.055369,188.20085 85.948875,189.46652 C 84.636511,189.871 83.563355,190.3284 83.564063,190.48294 C 83.566368,190.98075 84.045378,192.50986 84.199035,192.50986 C 84.280873,192.50986 85.110506,192.29584 86.042661,192.03429 C 88.009504,191.48239 88.389893,191.58941 89.929123,193.12774 C 92.862605,196.05951 92.490564,199.94294 89.023877,202.5771 C 87.550643,203.69654 85.798982,204.3531 83.447641,204.66718 C 78.927683,205.27091 74.102512,203.01202 72.585226,199.58195 C 72.097546,198.47949 72.109898,198.48274 70.584682,199.05332 C 69.956578,199.28831 69.916973,199.87431 70.453208,200.99881 C 70.816002,201.75958 70.817246,201.88075 70.469908,202.60914 C 69.124039,205.43144 65.667602,207.40846 62.079222,207.40846 C 58.139675,207.40846 54.883293,205.44024 53.376122,202.14815 C 52.888073,201.08213 52.391558,198.24157 52.372955,196.4091 C 52.36987,196.10487 52.177253,196.00253 51.612249,196.00489 C 49.871913,196.0122 49.868513,196.01747 49.989116,198.52204 C 50.067896,200.15804 49.992077,201.18601 49.712006,202.27925 C 48.902449,205.43923 46.696459,208.2306 44.051848,209.44134 C 42.479649,210.16112 39.952179,210.3658 38.517772,209.88948 L 38.517772,209.88948 z M 29.103212,145.88485 C 34.765601,143.95447 38.918777,138.25026 39.808519,131.18157 C 41.205692,120.08151 34.388165,110.10197 25.407992,110.10197 C 21.961174,110.10197 19.135472,111.38748 16.2584,114.26443 C 14.510077,116.01267 14.10149,116.58552 13.083881,118.71522 C 11.701874,121.60754 11.222442,123.28022 10.959889,126.12559 C 10.43588,131.80443 11.981523,137.2846 15.247191,141.32645 C 17.131698,143.65887 20.016494,145.57001 22.567339,146.17597 C 24.26669,146.57966 27.485717,146.43628 29.103212,145.88485 L 29.103212,145.88485 z M 60.780312,145.74522 C 62.837383,144.95309 65.24502,143.11983 66.802818,141.1595 C 69.597144,137.64315 71.005222,133.45383 71.022447,128.60529 C 71.037565,124.34838 70.423788,121.69769 68.597609,118.13325 C 67.373621,115.7442 64.34278,112.6019 62.243806,111.54577 C 55.26964,108.0366 47.786701,111.11348 43.958572,119.06441 C 40.177593,126.9174 41.766473,137.12767 47.639281,142.71692 C 49.239908,144.24026 50.761034,145.17278 52.834401,145.90177 C 54.145795,146.36285 54.688953,146.42155 56.908233,146.342 C 58.808181,146.2739 59.807315,146.11991 60.780312,145.74522 L 60.780312,145.74522 z"
         style="opacity:1;fill:url(#linearGradient3330);fill-opacity:1;fill-rule:nonzero;stroke:none;stroke-width:5;stroke-linejoin:miter;stroke-miterlimit:4;stroke-dasharray:none;stroke-dashoffset:0;stroke-opacity:1" />
      <path
         id="path3332"
         d="M 38.517772,209.88948 C 35.295705,208.81956 33.067051,206.54264 31.88824,203.11636 C 31.18881,201.08343 31.069292,199.18937 31.506914,197.07326 C 31.713893,196.07242 31.883242,195.22481 31.883242,195.18969 C 31.883242,195.04396 29.748631,194.6019 29.572025,194.71105 C 29.466309,194.77639 29.255261,195.32922 29.103037,195.93956 C 28.720783,197.47223 27.93637,198.73665 26.581718,200.00377 C 25.23279,201.26553 24.025745,201.92398 22.180619,202.40458 C 19.482779,203.10727 15.993708,202.64925 13.669762,201.28732 C 12.126283,200.38278 10.352929,198.32558 9.7649709,196.75751 C 9.1614149,195.14786 9.1067969,192.85245 9.6368379,191.37262 C 9.8379359,190.81116 10.378892,189.82784 10.83895,189.18747 L 11.675423,188.02317 L 10.84774,187.19548 C 10.037328,186.38507 10.01021,186.37673 9.5475699,186.79541 C 8.8764319,187.40278 7.8005649,189.17802 7.3245429,190.46354 C 6.9603579,191.44702 6.8076169,191.59555 5.8408469,191.90621 C 3.6085708,192.62355 1.8732509,192.8087 -1.3573923,192.67434 C -4.7259707,192.53422 -6.1704787,192.20866 -8.6511982,191.03047 C -11.209356,189.81551 -13.045358,187.61292 -13.045358,185.75894 C -13.045358,182.64376 -8.3402809,179.3312 -3.2426264,178.85743 C -1.1402498,178.66203 -0.87377194,178.45811 -1.0751496,177.19877 L -1.2325399,176.21452 L -2.4298023,176.21452 C -4.6552728,176.21452 -8.2775668,173.59539 -8.7709785,171.62949 C -9.4297273,169.00483 -5.979434,166.14142 -0.35826664,164.64774 C 1.7941551,164.07579 2.3381595,164.02779 6.8582449,164.01108 C 10.186877,163.99877 12.192554,164.09356 13.143592,164.30813 C 14.421897,164.59653 14.665375,164.75945 16.014929,166.22952 C 16.825957,167.11296 18.430873,168.63445 19.581408,169.61059 L 21.673293,171.38539 L 22.345785,170.59908 C 22.715652,170.1666 23.022531,169.69562 23.027734,169.55244 C 23.032939,169.40926 22.105785,168.49994 20.967394,167.53174 C 17.500745,164.58333 14.397997,160.57011 12.121876,156.0906 C 5.4399535,142.94026 6.0740469,126.68715 13.759325,114.11919 C 15.234445,111.70688 16.6212,109.95702 18.939543,107.5826 C 23.383585,103.03106 28.587572,100.09297 34.748264,98.657255 C 37.590671,97.994844 43.401259,97.943327 46.199864,98.555719 C 58.003992,101.13869 67.621747,110.34393 71.640793,122.90546 C 73.268383,127.99248 73.66916,130.70626 73.66916,136.64011 C 73.66916,142.1182 73.394875,144.27226 72.142578,148.62882 C 70.040187,155.94272 66.686504,161.53671 61.414533,166.52326 L 58.787952,169.00764 L 59.633564,169.85324 L 60.479167,170.69884 L 62.301946,169.17742 C 63.304486,168.34063 64.561469,167.13735 65.095251,166.50346 C 65.629017,165.86959 66.20518,165.34717 66.375593,165.34256 C 66.546013,165.33795 67.313982,165.16904 68.082189,164.96723 C 71.789378,163.9933 78.62121,163.86365 82.398817,164.69552 C 86.154678,165.52261 89.615323,167.57739 89.615323,168.98036 C 89.615323,170.30201 87.697342,171.73512 84.49393,172.80704 C 82.639219,173.42766 78.073594,174.11939 75.832146,174.11939 L 74.483931,174.11939 L 74.483931,175.34731 L 74.483931,176.57523 L 78.615965,176.56947 C 82.43275,176.56414 82.925609,176.61312 85.075906,177.21164 C 88.403884,178.13793 91.356295,179.62867 92.692917,181.05762 C 94.119644,182.58292 94.309613,183.50921 93.484434,184.91727 C 92.383974,186.79505 90.055369,188.20085 85.948875,189.46652 C 84.51379,189.90884 83.562763,190.32329 83.562763,190.5064 C 83.562763,190.78869 84.020593,192.29751 84.158498,192.46966 C 84.192077,192.51157 85.011079,192.32375 85.978518,192.05229 C 88.015984,191.48057 88.380186,191.57971 89.929123,193.12774 C 92.862605,196.05951 92.490564,199.94294 89.023877,202.5771 C 87.550643,203.69654 85.798982,204.3531 83.447641,204.66718 C 78.927683,205.27091 74.102512,203.01202 72.585226,199.58195 C 72.097546,198.47949 72.109898,198.48274 70.584682,199.05332 C 69.956578,199.28831 69.916973,199.87431 70.453208,200.99881 C 70.816002,201.75958 70.817246,201.88075 70.469908,202.60914 C 69.124039,205.43144 65.667602,207.40846 62.079222,207.40846 C 58.139675,207.40846 54.883293,205.44024 53.376122,202.14815 C 52.888073,201.08213 52.391558,198.24157 52.372955,196.4091 C 52.369754,196.09364 52.171858,196.00252 51.495854,196.00528 C 50.002295,196.01138 49.917159,196.16585 49.995196,198.72813 C 50.075333,201.35943 49.708264,203.04887 48.607798,205.11355 C 47.696134,206.82401 45.771236,208.65418 44.059899,209.43766 C 42.479525,210.16117 39.955639,210.36694 38.517772,209.88948 L 38.517772,209.88948 z M 28.498103,146.06086 C 30.722233,145.48154 32.537812,144.37147 34.583803,142.33993 C 36.175477,140.7595 36.65703,140.0873 37.671353,138.03 C 39.475291,134.37116 39.868497,132.62261 39.868497,128.25964 C 39.868502,123.98221 39.468361,122.12965 37.832129,118.83162 C 36.578962,116.30571 35.122494,114.41609 33.3664,113.03779 C 29.183364,109.75467 24.145373,109.21002 19.683395,111.55855 C 17.537655,112.68795 14.527334,115.80741 13.338728,118.13325 C 12.281409,120.20218 11.561183,122.2859 11.147579,124.47253 C 10.779759,126.41713 10.998223,132.11239 11.511628,133.96301 C 12.075749,135.99644 13.722671,139.33227 14.984335,140.99699 C 16.813517,143.4105 19.937535,145.56087 22.482787,146.1584 C 23.92798,146.49769 27.01308,146.44766 28.498103,146.06086 L 28.498103,146.06086 z M 60.982072,145.634 C 66.971296,143.18 70.992591,136.34758 71.016395,128.58504 C 71.029536,124.30255 70.420454,121.67847 68.590404,118.13325 C 67.383058,115.79436 64.356539,112.65297 62.262422,111.56512 C 54.26183,107.40898 45.331069,112.49676 42.560623,122.78905 C 41.896255,125.25723 41.828378,130.8013 42.432762,133.2327 C 44.014194,139.59473 47.714472,144.10162 52.834401,145.90177 C 54.144154,146.36228 54.691725,146.42169 56.908233,146.34387 C 59.012832,146.26999 59.738445,146.14355 60.982072,145.634 L 60.982072,145.634 z"
         style="opacity:1;fill:url(#radialGradient3348);fill-opacity:1;fill-rule:nonzero;stroke:none;stroke-width:5;stroke-linejoin:miter;stroke-miterlimit:4;stroke-dasharray:none;stroke-dashoffset:0;stroke-opacity:1" />
      <path
         id="path3350"
         d="M 38.517772,209.88948 C 35.295705,208.81956 33.067051,206.54264 31.88824,203.11636 C 31.18881,201.08343 31.069292,199.18937 31.506914,197.07326 C 31.713893,196.07242 31.883242,195.22481 31.883242,195.18969 C 31.883242,195.04396 29.748631,194.6019 29.572025,194.71105 C 29.466309,194.77639 29.255261,195.32922 29.103037,195.93956 C 28.720783,197.47223 27.93637,198.73665 26.581718,200.00377 C 25.23279,201.26553 24.025745,201.92398 22.180619,202.40458 C 19.482779,203.10727 15.993708,202.64925 13.669762,201.28732 C 12.126283,200.38278 10.352929,198.32558 9.7649709,196.75751 C 9.1614149,195.14786 9.1067969,192.85245 9.6368379,191.37262 C 9.8379359,190.81116 10.378892,189.82784 10.83895,189.18747 L 11.675423,188.02317 L 10.84774,187.19548 C 10.037328,186.38507 10.01021,186.37673 9.5475699,186.79541 C 8.8764319,187.40278 7.8005649,189.17802 7.3245429,190.46354 C 6.9603579,191.44702 6.8076169,191.59555 5.8408469,191.90621 C 3.6085708,192.62355 1.8732509,192.8087 -1.3573923,192.67434 C -4.7259707,192.53422 -6.1704787,192.20866 -8.6511982,191.03047 C -11.209356,189.81551 -13.045358,187.61292 -13.045358,185.75894 C -13.045358,182.64376 -8.3402809,179.3312 -3.2426264,178.85743 C -1.1402498,178.66203 -0.87377194,178.45811 -1.0751496,177.19877 L -1.2325399,176.21452 L -2.3760165,176.21452 C -5.0068581,176.21452 -8.8551259,173.14115 -8.8551259,171.04007 C -8.8551259,168.4955 -5.6092602,166.05657 -0.35628544,164.65404 C 1.7872648,164.08174 2.3438278,164.03146 6.7418489,164.01302 C 9.8845689,163.99985 12.040798,164.09952 13.056698,164.30494 C 14.539623,164.60479 14.656051,164.68022 16.064488,166.25332 C 16.870321,167.15336 18.467151,168.67006 19.613002,169.62375 L 21.696367,171.35773 L 22.357322,170.58526 C 22.720843,170.16039 23.022531,169.69562 23.027734,169.55244 C 23.032939,169.40926 22.105785,168.49994 20.967394,167.53174 C 17.500745,164.58333 14.397997,160.57011 12.121876,156.0906 C 5.4399535,142.94026 6.0740469,126.68715 13.759325,114.11919 C 15.234445,111.70688 16.6212,109.95702 18.939543,107.5826 C 23.383585,103.03106 28.587572,100.09297 34.748264,98.657255 C 37.590671,97.994844 43.401259,97.943327 46.199864,98.555719 C 56.462403,100.80137 64.830994,107.75136 69.695278,118.0683 C 71.448108,121.78599 72.516587,125.2523 73.374908,130.00556 C 73.847174,132.62089 73.764544,141.12866 73.239251,143.97301 C 71.513116,153.31977 67.74777,160.50757 61.427122,166.52162 L 58.800823,169.02051 L 59.648286,169.86796 L 60.495732,170.71541 L 61.961047,169.47772 C 62.766982,168.797 64.011629,167.60693 64.726941,166.83312 C 65.944687,165.5158 66.13743,165.40003 67.75322,165.01528 C 72.068044,163.98788 78.532513,163.84714 82.398817,164.69647 C 86.151705,165.52088 89.615323,167.57695 89.615323,168.98036 C 89.615323,170.3037 87.699515,171.73347 84.480064,172.8128 C 82.599095,173.4434 78.143855,174.11939 75.868747,174.11939 L 74.483931,174.11939 L 74.483915,175.34155 L 74.483907,176.56369 L 78.615948,176.56369 C 82.42287,176.56369 82.931167,176.61468 85.075906,177.21164 C 88.403884,178.13793 91.356295,179.62867 92.692917,181.05762 C 94.119644,182.58292 94.309613,183.50921 93.484434,184.91727 C 92.383974,186.79505 90.055369,188.20085 85.948875,189.46652 C 84.51379,189.90884 83.562763,190.32329 83.562763,190.5064 C 83.562763,190.78869 84.020593,192.29751 84.158498,192.46966 C 84.192077,192.51157 85.011079,192.32375 85.978518,192.05229 C 88.015984,191.48057 88.380186,191.57971 89.929123,193.12774 C 92.862605,196.05951 92.490564,199.94294 89.023877,202.5771 C 87.550643,203.69654 85.798982,204.3531 83.447641,204.66718 C 78.927683,205.27091 74.102512,203.01202 72.585226,199.58195 C 72.097546,198.47949 72.109898,198.48274 70.584682,199.05332 C 69.956578,199.28831 69.916973,199.87431 70.453208,200.99881 C 70.816002,201.75958 70.817246,201.88075 70.469908,202.60914 C 69.124039,205.43144 65.667602,207.40846 62.079222,207.40846 C 58.139675,207.40846 54.883293,205.44024 53.376122,202.14815 C 52.888073,201.08213 52.391558,198.24157 52.372955,196.4091 C 52.369754,196.09364 52.171858,196.00252 51.495854,196.00528 C 50.002295,196.01138 49.917159,196.16585 49.995196,198.72813 C 50.075333,201.35943 49.708264,203.04887 48.607798,205.11355 C 47.696134,206.82401 45.771236,208.65418 44.059899,209.43766 C 42.479525,210.16117 39.955639,210.36694 38.517772,209.88948 L 38.517772,209.88948 z M 28.516021,146.05619 C 33.445135,144.77233 37.686934,139.95109 39.360594,133.73022 C 40.078557,131.06163 40.081615,125.47894 39.366604,122.78905 C 37.027163,113.98808 29.888248,108.74088 22.593279,110.46041 C 20.319319,110.99643 18.487617,112.09142 16.379819,114.1748 C 12.430597,118.07828 10.730423,122.90945 10.995841,129.47374 C 11.141799,133.08355 11.573602,134.79486 13.127141,137.92046 C 15.214022,142.11908 18.478969,145.0128 22.338823,146.08475 C 23.819181,146.49587 26.882345,146.48172 28.516026,146.05619 L 28.516021,146.05619 z M 60.706383,145.74851 C 65.710337,143.72492 69.40091,138.88113 70.655216,132.6909 C 70.951131,131.23047 71.016041,129.99899 70.92974,127.48205 C 70.794388,123.53442 70.436279,122.02457 68.856521,118.74086 C 67.84802,116.64456 67.424105,116.05351 65.676042,114.30644 C 63.48105,112.11269 61.802698,111.08114 59.43533,110.47076 C 54.737253,109.25945 49.520974,111.20083 46.191346,115.39987 C 44.804179,117.14925 43.177365,120.45731 42.557547,122.78905 C 41.842537,125.47894 41.845599,131.06163 42.563553,133.73022 C 44.218369,139.88104 48.406894,144.68719 53.307851,146.05886 C 55.158219,146.57673 59.063429,146.41292 60.706383,145.74851 L 60.706383,145.74851 z"
         style="opacity:1;fill:url(#linearGradient4813);fill-opacity:1;fill-rule:nonzero;stroke:none;stroke-width:5;stroke-linejoin:miter;stroke-miterlimit:4;stroke-dasharray:none;stroke-dashoffset:0;stroke-opacity:1" />
      <path
         id="path4815"
         d="M 38.517772,209.89026 C 36.223921,209.13047 34.571927,207.89105 33.285639,205.96482 C 31.506891,203.30112 30.873408,200.13658 31.506309,197.0762 C 31.713621,196.07374 31.883242,195.22085 31.883242,195.18091 C 31.883242,195.03822 29.683631,194.64207 29.504858,194.75256 C 29.404588,194.81454 29.322543,195.01227 29.322543,195.19196 C 29.322543,195.37165 29.104149,196.10238 28.837224,196.8158 C 28.243621,198.40235 26.329534,200.54482 24.726,201.41757 C 22.25569,202.76208 19.059738,203.10491 16.252632,202.32653 C 14.20379,201.75841 12.866703,200.94023 11.445083,199.38475 C 9.9662779,197.7667 9.2618769,195.99483 9.2672779,193.9066 C 9.2719819,192.08735 9.7182399,190.74742 10.83895,189.18747 L 11.675423,188.02317 L 10.822149,187.18203 L 9.9688849,186.34091 L 9.1927709,187.22647 C 8.7659049,187.71353 8.0660109,188.89214 7.6374479,189.8456 C 6.9008159,191.48447 6.8010099,191.59735 5.8106859,191.91147 C 3.1064788,192.76922 -1.0118772,193.0108 -4.1766429,192.49729 C -7.4861679,191.9603 -10.77146,190.18532 -12.189056,188.16832 C -14.856636,184.37282 -10.703327,179.9777 -3.4019486,178.8696 C -1.3722861,178.56157 -0.82824734,178.27846 -1.0590823,177.65041 C -1.1217569,177.47989 -1.1730338,177.08707 -1.1730338,176.77745 C -1.1730338,176.25653 -1.2605933,176.21452 -2.346261,176.21452 C -5.0065741,176.21452 -8.8551259,173.15497 -8.8551259,171.04007 C -8.8551259,168.25387 -4.9652102,165.60453 1.0384773,164.30176 C 2.9429873,163.88849 11.007727,163.89062 13.056698,164.30494 C 14.528498,164.60255 14.663303,164.68832 15.99233,166.17273 C 17.186797,167.50684 20.745065,170.70248 21.553422,171.16707 C 21.701863,171.25239 22.097484,170.91096 22.465506,170.37991 C 23.022295,169.57646 23.068128,169.39791 22.785327,169.13402 C 22.603764,168.9646 21.606926,168.08728 20.570128,167.18447 C 15.845618,163.07041 11.991192,157.1006 9.7920109,150.49115 C 5.5209739,137.65489 7.2982559,123.77789 14.621542,112.78221 C 16.51058,109.94587 20.370312,105.89064 22.960848,104.0205 C 34.73818,95.518323 49.3413,96.161264 60.451823,105.67115 C 66.424816,110.78364 71.106542,118.9661 72.843414,127.32848 C 73.640696,131.16707 73.86043,133.92828 73.714102,138.26963 C 73.540116,143.43179 72.831112,147.20365 71.22023,151.53684 C 68.928916,157.7004 66.019823,162.15169 61.427122,166.52162 L 58.800823,169.02051 L 59.648286,169.86796 L 60.495732,170.71541 L 61.961047,169.4725 C 62.766982,168.7889 64.00776,167.59973 64.718352,166.82992 C 65.928713,165.51866 66.119884,165.40415 67.744633,165.01731 C 72.068323,163.98785 78.529079,163.84639 82.398817,164.69647 C 86.151705,165.52088 89.615323,167.57695 89.615323,168.98036 C 89.615323,170.3037 87.699515,171.73347 84.480064,172.8128 C 82.599095,173.4434 78.143855,174.11939 75.868747,174.11939 L 74.483931,174.11939 L 74.483915,175.34155 L 74.483907,176.56369 L 78.615948,176.56369 C 82.42287,176.56369 82.931167,176.61468 85.075906,177.21164 C 88.403884,178.13793 91.356295,179.62867 92.692917,181.05762 C 94.119644,182.58292 94.309613,183.50921 93.484434,184.91727 C 92.383974,186.79505 90.055369,188.20085 85.948875,189.46652 C 84.51379,189.90884 83.562763,190.32329 83.562763,190.5064 C 83.562763,190.78869 84.020593,192.29751 84.158498,192.46966 C 84.192077,192.51157 85.011079,192.32375 85.978518,192.05229 C 88.015984,191.48057 88.380186,191.57971 89.929123,193.12774 C 92.862605,196.05951 92.490564,199.94294 89.023877,202.5771 C 87.550643,203.69654 85.798982,204.3531 83.447641,204.66718 C 78.927683,205.27091 74.102512,203.01202 72.585226,199.58195 C 72.097546,198.47949 72.109898,198.48274 70.584682,199.05332 C 69.956578,199.28831 69.916973,199.87431 70.453208,200.99881 C 70.816002,201.75958 70.817246,201.88075 70.469908,202.60914 C 69.124039,205.43144 65.667602,207.40846 62.079222,207.40846 C 58.139675,207.40846 54.883293,205.44024 53.376122,202.14815 C 52.888073,201.08213 52.391558,198.24157 52.372955,196.4091 C 52.369754,196.09364 52.171858,196.00252 51.495854,196.00528 C 50.024668,196.01128 49.945413,196.15575 50.006384,198.72002 C 50.069185,201.36089 49.694138,203.07537 48.607798,205.11355 C 47.696134,206.82401 45.771236,208.65418 44.059899,209.43766 C 42.480716,210.16063 39.956428,210.36678 38.517772,209.89026 L 38.517772,209.89026 z M 29.791906,145.62497 C 35.189009,143.45342 39.080107,137.64147 39.811137,130.65972 C 40.817373,121.04964 35.885699,112.44328 28.229985,110.44921 C 21.954368,108.81463 15.153811,113.0719 12.314487,120.4126 C 10.516391,125.06134 10.450742,131.07046 12.147227,135.72201 C 14.011493,140.83358 17.961865,144.8214 22.402726,146.07471 C 24.307358,146.61224 27.878349,146.39489 29.7919,145.62497 L 29.791906,145.62497 z M 60.400096,145.84779 C 65.321186,144.11347 69.373432,138.96868 70.624239,132.86707 C 71.088838,130.60069 71.104294,126.02401 70.654483,123.91003 C 69.771212,119.75888 68.317025,116.96522 65.642183,114.28082 C 63.438224,112.06897 61.705634,111.02019 59.330871,110.46041 C 52.02495,108.73829 44.93902,113.9499 42.568296,122.78905 C 41.855462,125.44684 41.856007,131.03302 42.569368,133.73022 C 44.177544,139.8107 48.435383,144.70058 53.301602,146.05559 C 54.986884,146.52485 58.795284,146.41337 60.400096,145.84779 z"
         style="opacity:1;fill:#ffffff;fill-opacity:1;fill-rule:nonzero;stroke:none;stroke-width:5;stroke-linejoin:miter;stroke-miterlimit:4;stroke-dasharray:none;stroke-dashoffset:0;stroke-opacity:1" />
      <path
         id="path4817"
         d="M 38.517772,209.89026 C 36.186609,209.11811 34.601301,207.93503 33.313378,206.00635 C 31.26978,202.94604 30.750781,199.34543 31.798086,195.4938 C 31.882442,195.18356 31.685654,195.06946 30.850209,194.94417 C 30.270327,194.85721 29.723584,194.79208 29.635228,194.79943 C 29.546872,194.80677 29.297372,195.38551 29.080789,196.08552 C 28.562858,197.75946 27.939963,198.73328 26.563781,200.02054 C 23.918256,202.49513 20.011493,203.36883 16.252632,202.32653 C 14.20379,201.75841 12.866703,200.94023 11.445083,199.38475 C 9.9662779,197.7667 9.2618769,195.99483 9.2672779,193.9066 C 9.2719819,192.08735 9.7182399,190.74742 10.83895,189.18747 L 11.675423,188.02317 L 10.822583,187.18203 L 9.9697509,186.34091 L 9.2708189,187.15567 C 8.8864109,187.6038 8.1863239,188.78333 7.7150689,189.77686 L 6.8582449,191.5833 L 5.22871,192.10477 C 3.7902941,192.56509 3.121377,192.6251 -0.47466114,192.61641 C -4.3106674,192.60714 -4.657221,192.56888 -6.4108233,191.96101 C -8.5921236,191.20491 -9.9494558,190.45327 -11.248426,189.28218 C -15.525605,185.42603 -11.649396,180.19668 -3.5332607,178.87374 C -2.4627378,178.69923 -1.4642057,178.45467 -1.3142976,178.33026 C -1.1569016,178.19963 -1.0798084,177.70487 -1.131837,177.1593 L -1.2219376,176.21452 L -2.387051,176.21452 C -5.0892731,176.21452 -8.8551259,173.16601 -8.8551259,170.97852 C -8.8551259,168.27733 -5.2086112,165.78779 0.92208276,164.30346 C 2.6943131,163.87438 11.247783,163.87948 13.143592,164.31075 C 14.431955,164.60383 14.684843,164.77641 16.40266,166.5347 C 17.42694,167.58311 18.980612,169.05793 19.855266,169.81207 C 21.5849,171.30339 21.745874,171.31786 22.676326,170.06559 L 23.15359,169.42327 L 21.989636,168.4746 C 19.897085,166.76909 16.667025,163.31105 15.072384,161.06914 C 14.212697,159.8605 12.833896,157.50978 12.008384,155.84533 C 4.0790291,139.85763 6.8128489,120.13337 18.656009,107.88331 C 22.365647,104.04623 26.189746,101.50143 30.760838,99.828001 C 42.651913,95.474799 55.665271,99.275247 64.34632,109.63639 C 69.37256,115.63539 72.611402,123.40135 73.56957,131.7515 C 73.921165,134.8155 73.719397,141.59155 73.195273,144.3222 C 71.435723,153.48921 67.726814,160.49533 61.448879,166.51109 L 58.823532,169.0268 L 59.599284,169.82716 C 60.025944,170.26737 60.454115,170.62754 60.550777,170.62754 C 60.647443,170.62754 61.962521,169.44383 63.473195,167.99707 C 66.219804,165.36666 66.219903,165.36661 67.965791,164.96924 C 72.598812,163.91475 78.994519,163.84284 82.858732,164.80177 C 86.609438,165.73253 89.615323,167.6468 89.615323,169.10464 C 89.615323,170.38401 87.053189,172.122 83.795556,173.05242 C 82.055818,173.54933 77.972596,174.10993 76.055266,174.11514 L 74.483931,174.11939 L 74.483931,175.28335 L 74.483931,176.4473 L 77.955312,176.4473 C 81.741548,176.4473 83.814461,176.74978 86.725827,177.72709 C 90.671673,179.05167 93.583087,181.19366 93.926629,183.0249 C 94.361389,185.34235 91.340922,187.83436 86.23986,189.36681 C 83.62194,190.15327 83.495069,190.26355 83.823816,191.4667 C 83.963086,191.97642 84.104507,192.42317 84.138086,192.45945 C 84.171664,192.49574 84.994117,192.30734 85.965772,192.04077 C 88.012575,191.47925 88.380662,191.58019 89.929123,193.12774 C 92.821088,196.01802 92.503146,199.84721 89.151217,202.49676 C 87.730583,203.6197 85.899067,204.3306 83.541288,204.67425 C 79.149147,205.31442 74.049872,202.99485 72.638896,199.71497 L 72.163551,198.61001 L 71.208497,198.85242 C 70.683211,198.98576 70.199261,199.23602 70.133052,199.40856 C 70.066833,199.58109 70.193967,200.22643 70.415554,200.84263 C 70.791111,201.88702 70.792453,202.01325 70.435316,202.70387 C 68.131906,207.15818 61.517321,208.81048 56.870174,206.09238 C 54.401218,204.64831 52.946546,202.15808 52.58247,198.75233 C 52.289251,196.00948 52.286101,196.00172 51.463998,196.00172 C 50.079104,196.00172 50.040909,196.07292 50.040909,198.6548 C 50.040909,200.03234 49.891605,201.59853 49.684464,202.39379 C 48.877356,205.49249 46.687787,208.23457 44.059899,209.43766 C 42.480716,210.16063 39.956428,210.36678 38.517772,209.89026 L 38.517772,209.89026 z M 29.438939,145.70459 C 35.083358,143.5869 39.051194,137.81512 39.780927,130.66071 C 40.807125,120.5997 35.326651,111.66507 27.288876,110.29537 C 20.075168,109.06609 12.829396,115.34549 11.292587,124.15822 C 10.054553,131.2576 11.903888,137.84002 16.40266,142.34678 C 18.373134,144.32073 20.187255,145.4521 22.364972,146.06513 C 24.15303,146.56847 27.605376,146.39251 29.438939,145.70459 z M 58.913385,146.18097 C 61.335605,145.72446 63.449423,144.49344 65.667873,142.24736 C 67.409991,140.48355 67.855496,139.85918 68.856521,137.77842 C 70.395446,134.57961 70.778579,132.98635 70.926635,129.16994 C 71.066961,125.55281 70.72229,123.30343 69.569742,120.31479 C 67.678192,115.40983 63.67008,111.5822 59.24543,110.45533 C 52.110041,108.6381 44.658846,114.25013 42.58173,123.00594 C 41.890763,125.91862 41.890763,130.60065 42.58173,133.51333 C 43.824941,138.75392 47.185593,143.24551 51.380265,145.27274 C 53.655256,146.37221 56.243196,146.68423 58.913379,146.18098 L 58.913385,146.18097 z"
         style="opacity:1;fill:#1b86ff;fill-opacity:1;fill-rule:nonzero;stroke:none;stroke-width:5;stroke-linejoin:miter;stroke-miterlimit:4;stroke-dasharray:none;stroke-dashoffset:0;stroke-opacity:1" />
      <path
         transform="matrix(0.461944,0,0,0.461944,-19.621545,89.243926)"
         d="M 144.62992,144.37796 A 12.598426,13.354331 0 1 1 119.43307,144.37796 A 12.598426,13.354331 0 1 1 144.62992,144.37796 z"
         sodipodi:ry="13.354331"
         sodipodi:rx="12.598426"
         sodipodi:cy="144.37796"
         sodipodi:cx="132.03149"
         id="path4819"
         style="opacity:1;fill:#ff4a1b;fill-opacity:1;fill-rule:nonzero;stroke:none;stroke-width:5;stroke-linejoin:miter;stroke-miterlimit:4;stroke-dasharray:none;stroke-dashoffset:0;stroke-opacity:1"
         sodipodi:type="arc" />
    </g>
    <flowRoot
       xml:space="preserve"
       id="flowRoot2559"
       style="font-size:56px;font-style:normal;font-variant:normal;font-weight:bold;font-stretch:normal;text-align:center;line-height:100%;writing-mode:lr-tb;text-anchor:middle;opacity:1;fill:url(#linearGradient4791);fill-opacity:1;fill-rule:nonzero;stroke:#000000;stroke-width:1px;stroke-linecap:butt;stroke-linejoin:miter;stroke-opacity:1;font-family:BPreplay;-inkscape-font-specification:BPreplay Bold"
       transform="translate(-51.034483,18.165574)"><flowRegion
         id="flowRegion2561"
         style="fill:url(#linearGradient4859);fill-opacity:1"><rect
           id="rect2563"
           width="280.80811"
           height="50.109409"
           x="156.82759"
           y="25.379311"
           style="font-size:56px;font-style:normal;font-variant:normal;font-weight:bold;font-stretch:normal;text-align:center;line-height:100%;writing-mode:lr-tb;text-anchor:middle;fill:url(#linearGradient4857);fill-opacity:1;fill-rule:nonzero;stroke:#000000;stroke-opacity:1;font-family:BPreplay;-inkscape-font-specification:BPreplay Bold" /></flowRegion><flowPara
         id="flowPara2565"
         style="fill:url(#linearGradient4861);fill-opacity:1;fill-rule:nonzero">BLACKFISK</flowPara></flowRoot>  </g>
</svg>
