<?xml version="1.0" encoding="UTF-8" standalone="no"?>
<!-- Created with Inkscape (http://www.inkscape.org/) -->
<svg
   xmlns:dc="http://purl.org/dc/elements/1.1/"
   xmlns:cc="http://creativecommons.org/ns#"
   xmlns:rdf="http://www.w3.org/1999/02/22-rdf-syntax-ns#"
   xmlns:svg="http://www.w3.org/2000/svg"
   xmlns="http://www.w3.org/2000/svg"
   xmlns:xlink="http://www.w3.org/1999/xlink"
   xmlns:sodipodi="http://sodipodi.sourceforge.net/DTD/sodipodi-0.dtd"
   xmlns:inkscape="http://www.inkscape.org/namespaces/inkscape"
   width="256"
   height="256"
   id="svg2"
   sodipodi:version="0.32"
   inkscape:version="0.46"
   version="1.0"
   sodipodi:docname="logo.svg"
   inkscape:output_extension="org.inkscape.output.svg.inkscape"
   inkscape:export-filename="D:\Garage\projekte\blackfisk\trunk\graphic\logo128.png"
   inkscape:export-xdpi="45"
   inkscape:export-ydpi="45">
  <defs
     id="defs4">
    <linearGradient
       inkscape:collect="always"
       id="linearGradient4807">
      <stop
         style="stop-color:#ffffff;stop-opacity:1;"
         offset="0"
         id="stop4809" />
      <stop
         style="stop-color:#ffffff;stop-opacity:0;"
         offset="1"
         id="stop4811" />
    </linearGradient>
    <linearGradient
       inkscape:collect="always"
       id="linearGradient3342">
      <stop
         style="stop-color:#ffffff;stop-opacity:1;"
         offset="0"
         id="stop3344" />
      <stop
         style="stop-color:#ffffff;stop-opacity:0;"
         offset="1"
         id="stop3346" />
    </linearGradient>
    <linearGradient
       inkscape:collect="always"
       id="linearGradient3324">
      <stop
         style="stop-color:#ffffff;stop-opacity:1;"
         offset="0"
         id="stop3326" />
      <stop
         style="stop-color:#ffffff;stop-opacity:0;"
         offset="1"
         id="stop3328" />
    </linearGradient>
    <inkscape:perspective
       sodipodi:type="inkscape:persp3d"
       inkscape:vp_x="0 : 526.18109 : 1"
       inkscape:vp_y="0 : 1000 : 0"
       inkscape:vp_z="744.09448 : 526.18109 : 1"
       inkscape:persp3d-origin="372.04724 : 350.78739 : 1"
       id="perspective10" />
    <linearGradient
       inkscape:collect="always"
       xlink:href="#linearGradient3324"
       id="linearGradient3330"
       x1="11.716213"
       y1="128.30013"
       x2="243.38695"
       y2="128.30013"
       gradientUnits="userSpaceOnUse" />
    <radialGradient
       inkscape:collect="always"
       xlink:href="#linearGradient3342"
       id="radialGradient3348"
       cx="127.55158"
       cy="128.38375"
       fx="127.55158"
       fy="128.38375"
       r="115.83537"
       gradientTransform="matrix(1,0,0,1.0467363,0,-6.0001807)"
       gradientUnits="userSpaceOnUse" />
    <linearGradient
       inkscape:collect="always"
       xlink:href="#linearGradient4807"
       id="linearGradient4813"
       x1="11.716213"
       y1="128.38374"
       x2="243.38695"
       y2="128.38374"
       gradientUnits="userSpaceOnUse"
       spreadMethod="repeat" />
  </defs>
  <sodipodi:namedview
     id="base"
     pagecolor="#ffffff"
     bordercolor="#666666"
     borderopacity="1.0"
     inkscape:pageopacity="0.0"
     inkscape:pageshadow="2"
     inkscape:zoom="1.984375"
     inkscape:cx="119.0548"
     inkscape:cy="128"
     inkscape:document-units="px"
     inkscape:current-layer="layer1"
     showgrid="false"
     borderlayer="false"
     inkscape:window-width="1024"
     inkscape:window-height="721"
     inkscape:window-x="-4"
     inkscape:window-y="-4" />
  <metadata
     id="metadata7">
    <rdf:RDF>
      <cc:Work
         rdf:about="">
        <dc:format>image/svg+xml</dc:format>
        <dc:type
           rdf:resource="http://purl.org/dc/dcmitype/StillImage" />
      </cc:Work>
    </rdf:RDF>
  </metadata>
  <g
     inkscape:label="Ebene 1"
     inkscape:groupmode="layer"
     id="layer1">
    <path
       sodipodi:type="arc"
       style="opacity:1;fill:none;fill-opacity:1;fill-rule:nonzero;stroke:#000000;stroke-width:5;stroke-linejoin:miter;stroke-miterlimit:4;stroke-dasharray:none;stroke-dashoffset:0;stroke-opacity:1"
       id="path2481"
       sodipodi:cx="28.472441"
       sodipodi:cy="202.07874"
       sodipodi:rx="3.7795277"
       sodipodi:ry="0"
       d="M 29.367323,202.07874 A 3.7795277,0 0 0 1 27.490233,202.07874"
       sodipodi:start="1.3317553"
       sodipodi:end="4.4494955"
       sodipodi:open="true"
       transform="translate(0,-18)" />
    <path
       sodipodi:type="arc"
       style="opacity:1;fill:none;fill-opacity:1;fill-rule:nonzero;stroke:#000000;stroke-width:5;stroke-linejoin:miter;stroke-miterlimit:4;stroke-dasharray:none;stroke-dashoffset:0;stroke-opacity:1"
       id="path2483"
       sodipodi:cx="24.692913"
       sodipodi:cy="201.07086"
       sodipodi:rx="1.007874"
       sodipodi:ry="0"
       d="M 24.931548,201.07086 A 1.007874,0 0 0 1 24.430991,201.07086"
       sodipodi:start="1.3317553"
       sodipodi:end="4.4494955"
       sodipodi:open="true"
       transform="translate(0,-18)" />
    <g
       id="g3301"
       style="fill-opacity:1;fill:none">
      <path
         sodipodi:open="true"
         sodipodi:end="7.2699135"
         sodipodi:start="2.1290817"
         transform="translate(-7.5590551,-70.409449)"
         d="M 96.050172,233.84499 A 74.582672,86.173225 0 1 1 176.6856,232.64388"
         sodipodi:ry="86.173225"
         sodipodi:rx="74.582672"
         sodipodi:cy="160.75591"
         sodipodi:cx="135.55905"
         id="path3173"
         style="opacity:1;fill:none;fill-opacity:1;fill-rule:nonzero;stroke:#000000;stroke-width:5;stroke-linejoin:miter;stroke-miterlimit:4;stroke-dasharray:none;stroke-dashoffset:0;stroke-opacity:1"
         sodipodi:type="arc" />
      <path
         sodipodi:open="true"
         transform="matrix(0.9971582,0,0,1.1073598,117.01806,-28.54184)"
         sodipodi:end="7.3829883"
         sodipodi:start="4.9774062"
         d="M 96.046356,182.4103 A 45.390236,17.246937 0 0 1 104.75428,214.42417"
         sodipodi:ry="17.246937"
         sodipodi:rx="45.390236"
         sodipodi:cy="199.05511"
         sodipodi:cx="84.157478"
         id="path2471"
         style="opacity:1;fill:none;fill-opacity:1;fill-rule:nonzero;stroke:#000000;stroke-width:4.75820988999999980;stroke-linejoin:miter;stroke-miterlimit:4;stroke-dasharray:none;stroke-dashoffset:0;stroke-opacity:1"
         sodipodi:type="arc" />
      <path
         transform="matrix(0.725782,0,0,0.9670437,20.686025,22.15701)"
         sodipodi:open="true"
         sodipodi:end="3.8723507"
         sodipodi:start="0.18626665"
         d="M 117.59043,203.23883 A 34.021442,22.591297 0 1 1 58.822776,183.97691"
         sodipodi:ry="22.591297"
         sodipodi:rx="34.021442"
         sodipodi:cy="199.05511"
         sodipodi:cx="84.157478"
         id="path2473"
         style="opacity:1;fill:none;fill-opacity:1;fill-rule:nonzero;stroke:#000000;stroke-width:5.96820673000000030;stroke-linejoin:miter;stroke-miterlimit:4;stroke-dasharray:none;stroke-dashoffset:0;stroke-opacity:1"
         sodipodi:type="arc" />
      <path
         sodipodi:open="true"
         transform="translate(133.42566,23.089909)"
         sodipodi:end="9.2436032"
         sodipodi:start="5.2262485"
         d="M 96.047376,182.81746 A 24.188976,18.64567 0 1 1 60.36441,202.41479"
         sodipodi:ry="18.64567"
         sodipodi:rx="24.188976"
         sodipodi:cy="199.05511"
         sodipodi:cx="84.157478"
         id="path2475"
         style="opacity:1;fill:none;fill-opacity:1;fill-rule:nonzero;stroke:#000000;stroke-width:5;stroke-linejoin:miter;stroke-miterlimit:4;stroke-dasharray:none;stroke-dashoffset:0;stroke-opacity:1"
         sodipodi:type="arc" />
      <path
         sodipodi:open="true"
         transform="translate(-28.842051,-34.358909)"
         sodipodi:end="5.2135354"
         sodipodi:start="2.2794962"
         d="M 59.886515,212.82848 A 37.291336,18.141733 0 0 1 102.0734,183.14423"
         sodipodi:ry="18.141733"
         sodipodi:rx="37.291336"
         sodipodi:cy="199.05511"
         sodipodi:cx="84.157478"
         id="path2477"
         style="opacity:1;fill:none;fill-opacity:1;fill-rule:nonzero;stroke:#000000;stroke-width:5;stroke-linejoin:miter;stroke-miterlimit:4;stroke-dasharray:none;stroke-dashoffset:0;stroke-opacity:1"
         sodipodi:type="arc" />
      <path
         sodipodi:end="7.9367867"
         sodipodi:start="4.0130921"
         sodipodi:open="true"
         transform="translate(119.81937,-38.390405)"
         d="M 63.073165,188.64228 A 32.755905,13.606299 0 1 1 81.448222,212.61479"
         sodipodi:ry="13.606299"
         sodipodi:rx="32.755905"
         sodipodi:cy="199.05511"
         sodipodi:cx="84.157478"
         id="path2479"
         style="opacity:1;fill:none;fill-opacity:1;fill-rule:nonzero;stroke:#000000;stroke-width:5;stroke-linejoin:miter;stroke-miterlimit:4;stroke-dasharray:none;stroke-dashoffset:0;stroke-opacity:1"
         sodipodi:type="arc" />
      <path
         sodipodi:open="true"
         transform="translate(90.087083,25.971799)"
         sodipodi:end="3.1420724"
         sodipodi:start="0.26728413"
         d="M 106.51546,204.77826 A 23.181103,21.669292 0 0 1 60.976378,199.04472"
         sodipodi:ry="21.669292"
         sodipodi:rx="23.181103"
         sodipodi:cy="199.05511"
         sodipodi:cx="84.157478"
         id="path2487"
         style="opacity:1;fill:none;fill-opacity:1;fill-rule:nonzero;stroke:#000000;stroke-width:5;stroke-linejoin:miter;stroke-miterlimit:4;stroke-dasharray:none;stroke-dashoffset:0;stroke-opacity:1"
         sodipodi:type="arc" />
      <path
         sodipodi:open="true"
         transform="translate(-44.968035,-2.2486729)"
         sodipodi:end="4.6553707"
         sodipodi:start="0.93268944"
         d="M 102.16847,213.627 A 30.236219,18.141731 0 1 1 82.434395,180.94287"
         sodipodi:ry="18.141731"
         sodipodi:rx="30.236219"
         sodipodi:cy="199.05511"
         sodipodi:cx="84.157478"
         id="path2489"
         style="opacity:1;fill:none;fill-opacity:1;fill-rule:nonzero;stroke:#000000;stroke-width:5;stroke-linejoin:miter;stroke-miterlimit:4;stroke-dasharray:none;stroke-dashoffset:0;stroke-opacity:1"
         sodipodi:type="arc" />
      <path
         sodipodi:open="true"
         transform="matrix(0.725782,0,0,0.9670437,66.945425,33.665295)"
         sodipodi:end="9.7920885"
         sodipodi:start="6.0197292"
         d="M 114.9939,191.95055 A 31.938431,27.281296 0 1 1 54.349452,189.25822"
         sodipodi:ry="27.281296"
         sodipodi:rx="31.938431"
         sodipodi:cy="199.05511"
         sodipodi:cx="84.157478"
         id="path2491"
         style="opacity:1;fill:none;fill-opacity:1;fill-rule:nonzero;stroke:#000000;stroke-width:5.96820673000000030;stroke-linejoin:miter;stroke-miterlimit:4;stroke-dasharray:none;stroke-dashoffset:0;stroke-opacity:1"
         sodipodi:type="arc" />
    </g>
    <path
       sodipodi:type="arc"
       style="opacity:1;fill:#000000;fill-opacity:1;fill-rule:nonzero;stroke:#000000;stroke-width:5;stroke-linejoin:miter;stroke-miterlimit:4;stroke-dasharray:none;stroke-dashoffset:0;stroke-opacity:1"
       id="path3265"
       sodipodi:cx="102.55118"
       sodipodi:cy="76.09449"
       sodipodi:rx="28.976377"
       sodipodi:ry="36.787403"
       d="M 131.52756,76.09449 A 28.976377,36.787403 0 1 1 73.5748,76.09449 A 28.976377,36.787403 0 1 1 131.52756,76.09449 z"
       transform="translate(-7.5590518,-3.6535445)" />
    <path
       sodipodi:type="arc"
       style="opacity:1;fill:#000000;fill-opacity:1;fill-rule:nonzero;stroke:#000000;stroke-width:5;stroke-linejoin:miter;stroke-miterlimit:4;stroke-dasharray:none;stroke-dashoffset:0;stroke-opacity:1"
       id="path3271"
       sodipodi:cx="102.55118"
       sodipodi:cy="76.09449"
       sodipodi:rx="28.976377"
       sodipodi:ry="36.787403"
       d="M 131.52756,76.09449 A 28.976377,36.787403 0 1 1 73.5748,76.09449 A 28.976377,36.787403 0 1 1 131.52756,76.09449 z"
       transform="translate(59.716539,-3.6535445)" />
    <path
       sodipodi:type="arc"
       style="opacity:1;fill:#ffffff;fill-opacity:1;fill-rule:nonzero;stroke:none;stroke-width:5;stroke-linejoin:miter;stroke-miterlimit:4;stroke-dasharray:none;stroke-dashoffset:0;stroke-opacity:1"
       id="path3273"
       sodipodi:cx="168.31496"
       sodipodi:cy="64"
       sodipodi:rx="10.582677"
       sodipodi:ry="13.102363"
       d="M 178.89763,64 A 10.582677,13.102363 0 1 1 157.73228,64 A 10.582677,13.102363 0 1 1 178.89763,64 z"
       transform="translate(-2.519685,-9.574803)" />
    <path
       sodipodi:type="arc"
       style="opacity:1;fill:#ffffff;fill-opacity:1;fill-rule:nonzero;stroke:none;stroke-width:5;stroke-linejoin:miter;stroke-miterlimit:4;stroke-dasharray:none;stroke-dashoffset:0;stroke-opacity:1"
       id="path3277"
       sodipodi:cx="168.31496"
       sodipodi:cy="64"
       sodipodi:rx="5.0393696"
       sodipodi:ry="5.5433068"
       d="M 173.35433,64 A 5.0393696,5.5433068 0 1 1 163.27559,64 A 5.0393696,5.5433068 0 1 1 173.35433,64 z"
       transform="translate(9.5748072,5.0393699)" />
    <path
       sodipodi:type="arc"
       style="opacity:1;fill:#ffffff;fill-opacity:1;fill-rule:nonzero;stroke:none;stroke-width:5;stroke-linejoin:miter;stroke-miterlimit:4;stroke-dasharray:none;stroke-dashoffset:0;stroke-opacity:1"
       id="path3279"
       sodipodi:cx="168.31496"
       sodipodi:cy="64"
       sodipodi:rx="10.582677"
       sodipodi:ry="13.102363"
       d="M 178.89763,64 A 10.582677,13.102363 0 1 1 157.73228,64 A 10.582677,13.102363 0 1 1 178.89763,64 z"
       transform="translate(-70.299211,-9.574803)" />
    <path
       sodipodi:type="arc"
       style="opacity:1;fill:#ffffff;fill-opacity:1;fill-rule:nonzero;stroke:none;stroke-width:5;stroke-linejoin:miter;stroke-miterlimit:4;stroke-dasharray:none;stroke-dashoffset:0;stroke-opacity:1"
       id="path3281"
       sodipodi:cx="168.31496"
       sodipodi:cy="64"
       sodipodi:rx="5.0393696"
       sodipodi:ry="5.5433068"
       d="M 173.35433,64 A 5.0393696,5.5433068 0 1 1 163.27559,64 A 5.0393696,5.5433068 0 1 1 173.35433,64 z"
       transform="translate(-58.204718,5.0393699)" />
    <path
       style="opacity:1;fill:#ffffff;fill-opacity:1;fill-rule:nonzero;stroke:none;stroke-width:5;stroke-linejoin:miter;stroke-miterlimit:4;stroke-dasharray:none;stroke-dashoffset:0;stroke-opacity:1"
       d="M 123.33826,249.07475 C 116.36324,246.75865 111.53873,241.82965 108.98688,234.41256 C 107.47278,230.01174 107.21405,225.91156 108.1614,221.33066 C 108.60946,219.16407 108.97606,217.3292 108.97606,217.25317 C 108.97606,217.08378 104.68454,215.9874 104.02158,215.9874 C 103.75942,215.9874 103.39438,216.8378 103.21041,217.87717 C 102.35465,222.71165 97.743768,228.60893 92.879275,231.09062 C 86.453302,234.36889 78.279207,234.40886 71.019339,231.19748 C 67.358357,229.57804 62.530253,224.48363 61.141518,220.7748 C 58.956392,214.93909 59.799348,209.31242 63.636596,204.12035 L 65.516931,201.57614 L 63.524838,199.90368 L 61.532745,198.23122 L 60.098334,199.60545 C 58.568718,201.07092 55.883465,205.82486 55.387888,207.94476 C 55.04891,209.39481 52.528524,210.47497 47.096648,211.49811 C 42.57472,212.34987 31.007597,211.80647 27.086292,210.5581 C 17.625137,207.54606 11.716213,202.27137 11.716213,196.8378 C 11.716213,194.36802 13.493025,191.08652 16.048121,188.83744 C 20.272545,185.11894 29.153139,181.73449 34.744829,181.71197 C 37.661118,181.70023 38.110448,181.21243 37.703665,178.49981 L 37.355238,176.17638 L 34.955923,176.17638 C 32.477874,176.17638 28.496736,174.41025 24.91959,171.724 C 22.88255,170.19429 20.787079,166.73574 20.787079,164.90332 C 20.787079,159.50937 28.120507,154.03747 39.18078,151.17872 C 46.152547,149.37673 58.55359,148.93034 66.186351,150.20663 L 71.414108,151.08077 L 75.393346,155.33386 C 77.581919,157.67307 81.070771,160.97461 83.146341,162.67062 L 86.920109,165.75429 L 88.605052,163.78423 C 89.531772,162.7007 90.242394,161.67328 90.184209,161.50108 C 90.126025,161.32888 88.159375,159.62408 85.813881,157.71263 C 73.65756,147.8059 63.513051,131.11234 59.115782,113.77891 C 54.731465,96.496544 55.377038,77.510093 60.91645,60.820535 C 71.268354,29.631546 95.882074,8.9333367 124.85007,7.0573657 C 132.50689,6.5615068 142.42456,8.0885266 149.69804,10.88319 C 173.08768,19.870115 190.42764,40.794522 197.09835,68.08189 C 199.12348,76.365964 199.43335,79.45019 199.40201,91.011024 C 199.37408,101.30836 199.2475,102.93501 198.02349,108.72432 C 193.92947,128.08817 185.95411,142.85383 172.94085,155.16258 L 167.29141,160.50616 L 168.74789,162.25764 C 169.54898,163.22096 170.40593,164.02549 170.65224,164.04551 C 171.45001,164.11032 178.04893,158.42048 180.66704,155.41038 C 182.06775,153.79996 183.31211,152.58067 183.43229,152.70085 C 183.55247,152.82103 184.70725,152.59151 185.99846,152.19081 C 192.9862,150.02232 206.57014,149.33518 215.10035,150.7187 C 225.45086,152.39748 233.95243,156.87214 233.95243,160.64118 C 233.95243,163.37464 229.67736,166.52074 222.86582,168.79999 C 218.85082,170.14348 208.96731,171.64094 204.1151,171.64094 L 201.19653,171.64094 L 201.19653,174.35927 L 201.19653,177.07755 L 210.14141,177.00494 C 218.50386,176.93702 219.41443,177.02362 224.12566,178.33492 C 231.32995,180.34012 237.72123,183.56722 240.6147,186.66057 C 243.70324,189.96249 244.11447,191.96768 242.32816,195.01579 C 239.92117,199.12298 233.72661,202.79282 225.55849,204.95061 C 223.19081,205.57608 221.14768,206.36391 221.0182,206.70133 C 220.72257,207.47175 221.76755,211.45197 222.26545,211.45197 C 222.46821,211.45197 224.27998,210.99588 226.29159,210.43843 C 230.5334,209.26296 231.32691,209.48666 234.63173,212.78955 C 240.96664,219.12076 240.17281,227.56601 232.71282,233.20428 C 227.42689,237.1994 219.4453,238.89627 212.55569,237.48968 C 205.0388,235.95502 198.53543,231.34278 197.09111,226.52208 C 196.76686,225.43983 196.35108,224.55433 196.16716,224.55433 C 195.98325,224.55433 194.76421,224.91843 193.4582,225.36343 C 190.88134,226.24147 190.82163,226.51127 192.48248,229.77396 C 193.44576,231.6663 193.05402,232.99775 190.63269,236.06098 C 181.31867,247.84411 161.63689,245.7146 155.47585,232.2571 C 154.62898,230.4073 154.10354,228.0088 153.77104,224.47496 C 153.5067,221.66543 153.18965,219.20374 153.06651,219.0045 C 152.85862,218.66812 151.62249,218.75445 148.9605,219.29126 C 147.91434,219.50224 147.88402,219.69251 148.14256,224.42604 C 148.34252,228.08718 148.19736,230.17331 147.57377,232.60005 C 145.8128,239.45294 141.0338,245.46133 135.20835,248.14643 C 131.919,249.66258 126.40672,250.09367 123.33826,249.07477 L 123.33826,249.07475 z M 101.16503,111.10771 C 104.464,110.46628 109.29824,107.95093 112.67036,105.12126 C 118.46467,100.25905 122.91629,92.913608 125.19198,84.459843 C 126.73496,78.727962 126.84558,66.469563 125.40306,61.069334 C 120.8466,44.011767 109.0038,33.058268 95.117788,33.058268 C 81.074112,33.058268 69.138359,43.906842 64.829299,60.587893 C 63.346621,66.327604 62.991501,75.959242 64.069922,81.184252 C 67.566383,98.124866 78.319985,110.01688 91.590229,111.61796 C 94.833462,112.00927 97.168182,111.88485 101.16503,111.10771 L 101.16503,111.10771 z M 169.4485,110.83018 C 178.92551,108.23512 187.75236,99.029755 191.33075,88.009575 C 193.31231,81.907064 193.81647,78.561401 193.7641,71.861417 C 193.72502,66.861647 193.44979,64.536073 192.4299,60.587893 C 188.12085,43.906847 176.18509,33.058268 162.14141,33.058268 C 148.2554,33.058268 136.41259,44.011772 131.85614,61.069334 C 130.41784,66.45378 130.52471,78.720494 132.05993,84.459843 C 135.99974,99.188651 146.79339,110.17083 158.70322,111.56851 C 162.81466,112.05101 165.71887,111.85145 169.4485,110.83018 z"
       id="path3320" />
    <path
       style="opacity:1;fill:url(#linearGradient3330);fill-opacity:1;fill-rule:nonzero;stroke:none;stroke-width:5;stroke-linejoin:miter;stroke-miterlimit:4;stroke-dasharray:none;stroke-dashoffset:0;stroke-opacity:1"
       d="M 123.33826,249.07475 C 116.36324,246.75865 111.53873,241.82965 108.98688,234.41256 C 107.47278,230.01174 107.21405,225.91156 108.1614,221.33066 C 108.60946,219.16407 108.97606,217.3292 108.97606,217.25317 C 108.97606,216.9377 104.35513,215.98076 103.97282,216.21704 C 103.74397,216.35848 103.2871,217.55523 102.95757,218.87647 C 102.13008,222.19434 100.43201,224.93151 97.49951,227.67452 C 94.579397,230.40593 91.966428,231.83132 87.972163,232.87169 C 82.514238,234.2933 75.441119,233.53607 70.464917,230.9974 C 67.001021,229.23025 62.431577,224.2201 61.141518,220.7748 C 59.00285,215.06318 59.783574,209.4765 63.448053,204.2697 C 64.375076,202.95253 65.117163,201.70528 65.097152,201.49805 C 65.07714,201.29082 64.276238,200.46901 63.317367,199.67182 C 61.637675,198.27533 61.537925,198.25499 60.587853,199.11479 C 59.089386,200.47088 56.64694,204.48548 55.789627,207.00155 C 55.108369,209.00092 54.762417,209.33908 52.645765,210.07451 C 48.050026,211.67131 44.144988,212.10447 37.017908,211.80802 C 29.725728,211.50471 26.598708,210.79995 21.228533,208.24946 C 15.690724,205.61935 11.716213,200.85124 11.716213,196.8378 C 11.716213,192.62398 15.762963,187.98345 22.029924,185.01075 C 25.795483,183.22458 31.576542,181.72472 34.744829,181.71197 C 37.642245,181.7003 38.061768,181.23912 37.653216,178.51471 L 37.302567,176.17638 L 34.775454,176.17638 C 32.187999,176.17638 28.840351,174.66361 24.91959,171.72261 C 22.883064,170.195 20.787079,166.73629 20.787079,164.90332 C 20.787079,159.52391 28.035321,154.10181 39.18078,151.1438 C 43.814451,149.91402 45.051833,149.80285 54.550859,149.76301 C 61.710357,149.73299 65.887073,149.93801 68.157158,150.43092 C 71.27931,151.10884 71.604571,151.32572 75.100795,155.06095 C 78.385996,158.57073 86.292788,165.5937 86.959063,165.5937 C 87.102342,165.5937 87.907291,164.65854 88.747838,163.51558 L 90.276097,161.43747 L 85.777069,157.71369 C 76.43645,149.98264 67.793119,137.79575 62.951877,125.53071 C 52.009555,97.808907 54.537545,66.618971 69.742045,41.754598 C 72.935333,36.532525 75.937331,32.744491 80.955999,27.60442 C 99.563959,8.5463282 126.53881,1.9848013 149.69804,10.88319 C 173.10587,19.87711 190.42245,40.773286 197.09835,68.08189 C 199.12348,76.365964 199.43335,79.45019 199.40201,91.011024 C 199.37413,101.28909 199.24608,102.94159 198.03271,108.67879 C 193.9022,128.20924 186.03049,142.78158 172.90436,155.19709 L 167.21843,160.57518 L 169.05812,162.41486 L 170.89778,164.25453 L 173.32276,162.30724 C 174.65647,161.23623 177.40677,158.6573 179.43451,156.57629 C 181.46225,154.49528 183.38981,152.74958 183.71797,152.69693 C 184.04615,152.64429 185.67527,152.24867 187.33826,151.81777 C 195.43963,149.71859 210.17318,149.44415 218.33039,151.24047 C 226.46096,153.03092 233.95243,157.47902 233.95243,160.51614 C 233.95243,163.37721 229.80046,166.47955 222.86582,168.79999 C 218.85082,170.14348 208.96731,171.64094 204.1151,171.64094 L 201.19653,171.64094 L 201.19653,174.31549 L 201.19653,176.99004 L 210.14141,176.96116 C 218.43158,176.9344 219.45514,177.03495 224.12566,178.33492 C 231.32995,180.34012 237.72123,183.56722 240.6147,186.66057 C 243.70324,189.96249 244.11447,191.96768 242.32816,195.01579 C 239.94591,199.08076 234.90503,202.12398 226.01543,204.86385 C 223.17448,205.73947 220.85134,206.72961 220.85288,207.06416 C 220.85788,208.14181 221.89482,211.45197 222.22744,211.45197 C 222.40461,211.45197 224.20057,210.98869 226.21846,210.42247 C 230.47622,209.22775 231.29966,209.45942 234.63173,212.78955 C 240.98203,219.13614 240.17666,227.54285 232.67209,233.24518 C 229.48289,235.66851 225.69095,237.08979 220.60086,237.76969 C 210.8162,239.07665 200.37084,234.18668 197.08628,226.76137 C 196.03056,224.37481 196.0573,224.38186 192.75558,225.61702 C 191.39587,226.1257 191.31014,227.39429 192.47096,229.82857 C 193.25632,231.47544 193.25902,231.73776 192.50711,233.31452 C 189.59363,239.42415 182.11125,243.70394 174.34326,243.70394 C 165.81506,243.70394 158.76576,239.44321 155.50309,232.3166 C 154.44658,230.0089 153.37174,223.85977 153.33147,219.89291 C 153.32479,219.23432 152.90782,219.01277 151.68472,219.0179 C 147.9173,219.03372 147.90994,219.04514 148.17102,224.46693 C 148.34156,228.00849 148.17743,230.2338 147.57114,232.6004 C 145.81864,239.44103 141.04319,245.48368 135.31823,248.10465 C 131.91479,249.66279 126.44341,250.10586 123.33826,249.07477 L 123.33826,249.07475 z M 102.95795,110.51979 C 115.21569,106.34097 124.20634,93.992698 126.13242,78.690646 C 129.15697,54.661629 114.39863,33.058268 94.95867,33.058268 C 87.497117,33.058268 81.380138,35.841089 75.151955,42.069004 C 71.367247,45.853541 70.482752,47.093639 68.279867,51.703937 C 65.288149,57.965128 64.250291,61.586091 63.681925,67.745633 C 62.547568,80.038985 65.893523,91.902271 72.962923,100.65193 C 77.042439,105.70107 83.287343,109.83825 88.809323,111.15001 C 92.488018,112.0239 99.456454,111.7135 102.95795,110.5198 L 102.95795,110.51979 z M 171.53142,110.21753 C 175.9845,108.50273 181.19646,104.53418 184.56873,100.29053 C 190.61779,92.67844 193.66595,83.60956 193.70323,73.11361 C 193.73596,63.898391 192.40728,58.160267 188.45402,50.444094 C 185.80438,45.272375 179.24332,38.470022 174.69954,36.18374 C 159.60211,28.587223 143.40331,35.24795 135.11631,52.459843 C 126.93138,69.459729 130.37093,91.562532 143.08418,103.66195 C 146.54916,106.95963 149.84204,108.97833 154.33039,110.55641 C 157.16925,111.55453 158.34506,111.6816 163.14928,111.5094 C 167.26222,111.36198 169.42511,111.02864 171.53142,110.21753 L 171.53142,110.21753 z"
       id="path3322" />
    <path
       style="opacity:1;fill:url(#radialGradient3348);fill-opacity:1;fill-rule:nonzero;stroke:none;stroke-width:5;stroke-linejoin:miter;stroke-miterlimit:4;stroke-dasharray:none;stroke-dashoffset:0;stroke-opacity:1"
       d="M 123.33826,249.07475 C 116.36324,246.75865 111.53873,241.82965 108.98688,234.41256 C 107.47278,230.01174 107.21405,225.91156 108.1614,221.33066 C 108.60946,219.16407 108.97606,217.3292 108.97606,217.25317 C 108.97606,216.9377 104.35513,215.98076 103.97282,216.21704 C 103.74397,216.35848 103.2871,217.55523 102.95757,218.87647 C 102.13008,222.19434 100.43201,224.93151 97.49951,227.67452 C 94.579397,230.40593 91.966428,231.83132 87.972163,232.87169 C 82.131976,234.39287 74.578958,233.40136 69.54816,230.45311 C 66.206892,228.49501 62.368,224.04163 61.095207,220.64714 C 59.788649,217.1626 59.670415,212.19359 60.81783,208.99012 C 61.253161,207.77468 62.424204,205.64602 63.42012,204.25978 L 65.230887,201.73934 L 63.439149,199.9476 C 61.684798,198.19325 61.626094,198.17519 60.624585,199.08154 C 59.171729,200.39636 56.842729,204.23935 55.812254,207.02218 C 55.023879,209.1512 54.693231,209.47272 52.600401,210.14523 C 47.768048,211.69807 44.01149,212.09891 37.017908,211.80802 C 29.725728,211.50471 26.598708,210.79995 21.228533,208.24946 C 15.690724,205.61935 11.716213,200.85124 11.716213,196.8378 C 11.716213,190.09419 21.901597,182.92329 32.936819,181.89767 C 37.48797,181.47468 38.064832,181.03325 37.628896,178.30707 L 37.288184,176.17638 L 34.696391,176.17638 C 29.878773,176.17638 22.037357,170.50659 20.969237,166.25088 C 19.543202,160.56912 27.012274,154.3705 39.18078,151.13703 C 43.840267,149.89889 45.017908,149.79499 54.802827,149.75881 C 62.008537,149.73217 66.350352,149.93737 68.409127,150.40184 C 71.176356,151.02616 71.703428,151.37886 74.624897,154.56121 C 76.380584,156.47367 79.854846,159.76732 82.345484,161.88043 L 86.873923,165.72244 L 88.329711,164.02027 C 89.130386,163.08408 89.794706,162.06451 89.805969,161.75456 C 89.817237,161.44461 87.810167,159.47615 85.34582,157.38021 C 77.841341,150.9976 71.124621,142.30992 66.197352,132.61283 C 51.732561,104.14546 53.105225,68.96129 69.742045,41.754598 C 72.935333,36.532525 75.937331,32.744491 80.955999,27.60442 C 90.576303,17.751398 101.84171,11.391138 115.17816,8.2831521 C 121.3313,6.8491994 133.90986,6.7376731 139.96818,8.063355 C 165.52134,13.654894 186.34151,33.58206 195.04181,60.774803 C 198.56516,71.787026 199.43275,77.661702 199.43275,90.507087 C 199.43275,102.36589 198.83898,107.02892 196.12806,116.45984 C 191.57687,132.29273 184.31693,144.40237 172.90436,155.19709 L 167.21843,160.57518 L 169.04898,162.40572 L 170.87951,164.23625 L 174.8254,160.94271 C 176.99567,159.13125 179.71674,156.52644 180.87224,155.15424 C 182.02773,153.78204 183.27498,152.65114 183.64389,152.64115 C 184.0128,152.63116 185.67527,152.26553 187.33826,151.82865 C 195.36346,149.72033 210.15276,149.43965 218.33039,151.24047 C 226.46096,153.03092 233.95243,157.47902 233.95243,160.51614 C 233.95243,163.37721 229.80046,166.47955 222.86582,168.79999 C 218.85082,170.14348 208.96731,171.64094 204.1151,171.64094 L 201.19653,171.64094 L 201.19653,174.2991 L 201.19653,176.95726 L 210.14141,176.94477 C 218.40385,176.93324 219.47077,177.03929 224.12566,178.33492 C 231.32995,180.34012 237.72123,183.56722 240.6147,186.66057 C 243.70324,189.96249 244.11447,191.96768 242.32816,195.01579 C 239.94591,199.08076 234.90503,202.12398 226.01543,204.86385 C 222.90881,205.82136 220.85007,206.71856 220.85007,207.11495 C 220.85007,207.72606 221.84117,210.99228 222.1397,211.36495 C 222.21239,211.45567 223.98533,211.04909 226.0796,210.46144 C 230.49025,209.22381 231.27865,209.43842 234.63173,212.78955 C 240.98203,219.13614 240.17666,227.54285 232.67209,233.24518 C 229.48289,235.66851 225.69095,237.08979 220.60086,237.76969 C 210.8162,239.07665 200.37084,234.18668 197.08628,226.76137 C 196.03056,224.37481 196.0573,224.38186 192.75558,225.61702 C 191.39587,226.1257 191.31014,227.39429 192.47096,229.82857 C 193.25632,231.47544 193.25902,231.73776 192.50711,233.31452 C 189.59363,239.42415 182.11125,243.70394 174.34326,243.70394 C 165.81506,243.70394 158.76576,239.44321 155.50309,232.3166 C 154.44658,230.0089 153.37174,223.85977 153.33147,219.89291 C 153.32454,219.21 152.89614,219.01276 151.43275,219.01874 C 148.19955,219.03194 148.01525,219.36635 148.18418,224.91304 C 148.35766,230.60922 147.56304,234.26645 145.18079,238.736 C 143.20725,242.43874 139.0403,246.40063 135.33566,248.09667 C 131.91452,249.66291 126.4509,250.10834 123.33826,249.07477 L 123.33826,249.07475 z M 101.64803,110.90082 C 106.46275,109.64674 110.39305,107.24367 114.82214,102.84588 C 118.26774,99.424615 119.31019,97.969471 121.50596,93.515898 C 125.41106,85.595369 126.26226,81.810162 126.26226,72.365354 C 126.26227,63.105744 125.39606,59.095352 121.854,51.955906 C 119.14119,46.487897 115.98828,42.397314 112.18675,39.413624 C 103.13146,32.306444 92.225396,31.127413 82.566264,36.211427 C 77.92124,38.656297 71.404604,45.409199 68.831552,50.444094 C 66.542705,54.92285 64.983585,59.433605 64.08823,64.167151 C 63.291984,68.376753 63.764909,80.705658 64.876311,84.711811 C 66.097497,89.113681 69.662695,96.335002 72.393903,99.938711 C 76.353653,105.16342 83.116417,109.81846 88.626288,111.11198 C 91.75479,111.84644 98.433306,111.73814 101.64803,110.90082 L 101.64803,110.90082 z M 171.96818,109.97674 C 184.93345,104.66442 193.63859,89.873844 193.69013,73.069778 C 193.71858,63.799201 192.40005,58.118662 188.43843,50.444094 C 185.82481,45.380934 179.27311,38.580581 174.73984,36.225643 C 157.42044,27.228583 138.08744,38.242429 132.09008,60.522835 C 130.65188,65.865817 130.50494,77.86746 131.81329,83.130865 C 135.23672,96.903161 143.24695,106.65952 154.33039,110.55641 C 157.1657,111.55329 158.35106,111.68193 163.14928,111.51348 C 167.70524,111.35353 169.27602,111.07982 171.96818,109.97675 L 171.96818,109.97674 z"
       id="path3332" />
    <path
       style="opacity:1;fill:url(#linearGradient4813);fill-opacity:1.0;fill-rule:nonzero;stroke:none;stroke-width:5;stroke-linejoin:miter;stroke-miterlimit:4;stroke-dasharray:none;stroke-dashoffset:0;stroke-opacity:1"
       d="M 123.33826,249.07475 C 116.36324,246.75865 111.53873,241.82965 108.98688,234.41256 C 107.47278,230.01174 107.21405,225.91156 108.1614,221.33066 C 108.60946,219.16407 108.97606,217.3292 108.97606,217.25317 C 108.97606,216.9377 104.35513,215.98076 103.97282,216.21704 C 103.74397,216.35848 103.2871,217.55523 102.95757,218.87647 C 102.13008,222.19434 100.43201,224.93151 97.49951,227.67452 C 94.579397,230.40593 91.966428,231.83132 87.972163,232.87169 C 82.131976,234.39287 74.578958,233.40136 69.54816,230.45311 C 66.206892,228.49501 62.368,224.04163 61.095207,220.64714 C 59.788649,217.1626 59.670415,212.19359 60.81783,208.99012 C 61.253161,207.77468 62.424204,205.64602 63.42012,204.25978 L 65.230887,201.73934 L 63.439149,199.9476 C 61.684798,198.19325 61.626094,198.17519 60.624585,199.08154 C 59.171729,200.39636 56.842729,204.23935 55.812254,207.02218 C 55.023879,209.1512 54.693231,209.47272 52.600401,210.14523 C 47.768048,211.69807 44.01149,212.09891 37.017908,211.80802 C 29.725728,211.50471 26.598708,210.79995 21.228533,208.24946 C 15.690724,205.61935 11.716213,200.85124 11.716213,196.8378 C 11.716213,190.09419 21.901597,182.92329 32.936819,181.89767 C 37.48797,181.47468 38.064832,181.03325 37.628896,178.30707 L 37.288184,176.17638 L 34.812826,176.17638 C 29.117672,176.17638 20.787079,169.52327 20.787079,164.97492 C 20.787079,159.46654 27.813614,154.1868 39.185069,151.15068 C 43.825351,149.91176 45.030179,149.80295 54.550859,149.76301 C 61.354109,149.73449 66.021836,149.95026 68.221022,150.39495 C 71.431207,151.04407 71.683246,151.20733 74.73218,154.61274 C 76.476619,156.56112 79.93338,159.84441 82.413879,161.90893 L 86.923873,165.6626 L 88.354686,163.99035 C 89.141624,163.07062 89.794706,162.06451 89.805969,161.75456 C 89.817237,161.44461 87.810167,159.47615 85.34582,157.38021 C 77.841341,150.9976 71.124621,142.30992 66.197352,132.61283 C 51.732561,104.14546 53.105225,68.96129 69.742045,41.754598 C 72.935333,36.532525 75.937331,32.744491 80.955999,27.60442 C 90.576303,17.751398 101.84171,11.391138 115.17816,8.2831521 C 121.3313,6.8491994 133.90986,6.7376731 139.96818,8.063355 C 162.18416,12.924654 180.30019,27.969744 190.83022,50.303511 C 194.62469,58.35141 196.9377,65.855189 198.79576,76.144882 C 199.8181,81.806438 199.63922,100.22375 198.50209,106.3811 C 194.76541,126.61464 186.61432,142.17453 172.93161,155.19353 L 167.24629,160.60305 L 169.08085,162.43759 L 170.91537,164.27213 L 174.08743,161.59282 C 175.83209,160.11922 178.52646,157.54298 180.07495,155.86787 C 182.71107,153.01619 183.12832,152.76556 186.62613,151.93268 C 195.96671,149.70858 209.96075,149.40394 218.33039,151.24251 C 226.45452,153.02716 233.95243,157.4781 233.95243,160.51614 C 233.95243,163.38086 229.80517,166.47596 222.83581,168.81246 C 218.76396,170.17757 209.1194,171.64094 204.19434,171.64094 L 201.19653,171.64094 L 201.1965,174.28661 L 201.19647,176.93228 L 210.14138,176.93228 C 218.38247,176.93228 219.48281,177.04265 224.12566,178.33492 C 231.32995,180.34012 237.72123,183.56722 240.6147,186.66057 C 243.70324,189.96249 244.11447,191.96768 242.32816,195.01579 C 239.94591,199.08076 234.90503,202.12398 226.01543,204.86385 C 222.90881,205.82136 220.85007,206.71856 220.85007,207.11495 C 220.85007,207.72606 221.84117,210.99228 222.1397,211.36495 C 222.21239,211.45567 223.98533,211.04909 226.0796,210.46144 C 230.49025,209.22381 231.27865,209.43842 234.63173,212.78955 C 240.98203,219.13614 240.17666,227.54285 232.67209,233.24518 C 229.48289,235.66851 225.69095,237.08979 220.60086,237.76969 C 210.8162,239.07665 200.37084,234.18668 197.08628,226.76137 C 196.03056,224.37481 196.0573,224.38186 192.75558,225.61702 C 191.39587,226.1257 191.31014,227.39429 192.47096,229.82857 C 193.25632,231.47544 193.25902,231.73776 192.50711,233.31452 C 189.59363,239.42415 182.11125,243.70394 174.34326,243.70394 C 165.81506,243.70394 158.76576,239.44321 155.50309,232.3166 C 154.44658,230.0089 153.37174,223.85977 153.33147,219.89291 C 153.32454,219.21 152.89614,219.01276 151.43275,219.01874 C 148.19955,219.03194 148.01525,219.36635 148.18418,224.91304 C 148.35766,230.60922 147.56304,234.26645 145.18079,238.736 C 143.20725,242.43874 139.0403,246.40063 135.33566,248.09667 C 131.91452,249.66291 126.4509,250.10834 123.33826,249.07477 L 123.33826,249.07475 z M 101.68682,110.89071 C 112.35719,108.11144 121.53969,97.674578 125.16277,84.207874 C 126.71699,78.431032 126.72361,66.345807 125.17578,60.522835 C 120.11144,41.470786 104.65737,30.111809 88.865477,33.83422 C 83.942889,34.994555 79.977686,37.364944 75.414798,41.874983 C 66.865663,50.3251 63.185185,60.783451 63.759753,74.993603 C 64.075717,82.807992 65.01047,86.512585 68.373513,93.27874 C 72.891122,102.36778 79.958965,108.632 88.314638,110.95253 C 91.519265,111.84251 98.150294,111.81186 101.68683,110.89071 L 101.68682,110.89071 z M 171.37138,110.22465 C 182.20377,105.84404 190.19299,95.358382 192.90826,81.957997 C 193.54885,78.796513 193.68936,76.130631 193.50254,70.682049 C 193.20954,62.13637 192.43432,58.867875 189.01452,51.75942 C 186.83135,47.221427 185.91366,45.941962 182.12953,42.15996 C 177.37788,37.410998 173.74465,35.177923 168.61985,33.8566 C 158.44962,31.234419 147.1576,35.437042 139.94974,44.526962 C 136.94685,48.313958 133.42518,55.475134 132.08342,60.522835 C 130.53559,66.345807 130.54222,78.431032 132.09642,84.207874 C 135.67871,97.522948 144.74588,107.92714 155.3553,110.89648 C 159.36091,112.01755 167.81477,111.66294 171.37138,110.22466 L 171.37138,110.22465 z"
       id="path3350" />
    <path
       style="opacity:1;fill:#ffffff;fill-opacity:1;fill-rule:nonzero;stroke:none;stroke-width:5;stroke-linejoin:miter;stroke-miterlimit:4;stroke-dasharray:none;stroke-dashoffset:0;stroke-opacity:1"
       d="M 123.33826,249.07644 C 118.37261,247.43167 114.79643,244.74862 112.01192,240.57879 C 108.16135,234.8125 106.79001,227.96202 108.16009,221.33702 C 108.60887,219.16692 108.97606,217.32064 108.97606,217.23415 C 108.97606,216.92529 104.21442,216.06772 103.82742,216.3069 C 103.61036,216.44107 103.43275,216.86909 103.43275,217.25808 C 103.43275,217.64708 102.95998,219.22894 102.38215,220.77333 C 101.09714,224.20782 96.95359,228.84577 93.482316,230.73507 C 88.134677,233.64563 81.216192,234.38778 75.139467,232.70276 C 70.704207,231.47289 67.809729,229.70174 64.732256,226.33449 C 61.530991,222.83178 60.006128,218.9961 60.01782,214.47559 C 60.028004,210.53734 60.994046,207.6367 63.42012,204.25978 L 65.230887,201.73934 L 63.383751,199.91847 L 61.536635,198.09764 L 59.856529,200.01468 C 58.932465,201.06905 57.417358,203.62047 56.48962,205.6845 C 54.894987,209.23225 54.678929,209.47659 52.535111,210.15659 C 46.681137,212.01343 37.765866,212.53638 30.914893,211.42477 C 23.750551,210.26231 16.638665,206.41989 13.569905,202.05357 C 7.7952205,193.83721 16.786157,184.32278 32.591925,181.92402 C 36.985666,181.25721 38.163382,180.64434 37.663678,179.28477 C 37.528003,178.91564 37.417001,178.06525 37.417001,177.395 C 37.417001,176.26733 37.227455,176.17638 34.877239,176.17638 C 29.118287,176.17638 20.787079,169.55319 20.787079,164.97492 C 20.787079,158.94344 29.207831,153.20824 42.204402,150.38806 C 46.327217,149.49343 63.785484,149.49805 68.221022,150.39495 C 71.407123,151.0392 71.698943,151.22486 74.575975,154.43827 C 77.161716,157.32633 84.864529,164.24414 86.614431,165.24986 C 86.935771,165.43456 87.792197,164.69542 88.588876,163.54582 C 89.794197,161.80655 89.893413,161.42004 89.281215,160.84877 C 88.888174,160.48201 86.730255,158.58285 84.485831,156.62843 C 74.258379,147.72248 65.914452,134.79926 61.153744,120.49134 C 51.907951,92.703854 55.755349,62.663423 71.608542,38.860341 C 75.697865,32.720338 84.053277,23.94172 89.661178,19.893317 C 115.15633,1.4881058 146.76865,2.8799194 170.82032,23.466573 C 183.75044,34.533911 193.88528,52.247015 197.64519,70.349606 C 199.37112,78.659271 199.84679,84.636639 199.53003,94.034646 C 199.15339,105.2095 197.61857,113.37468 194.13139,122.75502 C 189.17122,136.09768 182.87373,145.73367 172.93161,155.19353 L 167.24629,160.60305 L 169.08085,162.43759 L 170.91537,164.27213 L 174.08743,161.58152 C 175.83209,160.10168 178.51809,157.52742 180.05635,155.86093 C 182.6765,153.02236 183.09034,152.77449 186.60753,151.93706 C 195.96731,149.70853 209.95333,149.40231 218.33039,151.24251 C 226.45452,153.02716 233.95243,157.4781 233.95243,160.51614 C 233.95243,163.38086 229.80517,166.47596 222.83581,168.81246 C 218.76396,170.17757 209.1194,171.64094 204.19434,171.64094 L 201.19653,171.64094 L 201.1965,174.28661 L 201.19647,176.93228 L 210.14138,176.93228 C 218.38247,176.93228 219.48281,177.04265 224.12566,178.33492 C 231.32995,180.34012 237.72123,183.56722 240.6147,186.66057 C 243.70324,189.96249 244.11447,191.96768 242.32816,195.01579 C 239.94591,199.08076 234.90503,202.12398 226.01543,204.86385 C 222.90881,205.82136 220.85007,206.71856 220.85007,207.11495 C 220.85007,207.72606 221.84117,210.99228 222.1397,211.36495 C 222.21239,211.45567 223.98533,211.04909 226.0796,210.46144 C 230.49025,209.22381 231.27865,209.43842 234.63173,212.78955 C 240.98203,219.13614 240.17666,227.54285 232.67209,233.24518 C 229.48289,235.66851 225.69095,237.08979 220.60086,237.76969 C 210.8162,239.07665 200.37084,234.18668 197.08628,226.76137 C 196.03056,224.37481 196.0573,224.38186 192.75558,225.61702 C 191.39587,226.1257 191.31014,227.39429 192.47096,229.82857 C 193.25632,231.47544 193.25902,231.73776 192.50711,233.31452 C 189.59363,239.42415 182.11125,243.70394 174.34326,243.70394 C 165.81506,243.70394 158.76576,239.44321 155.50309,232.3166 C 154.44658,230.0089 153.37174,223.85977 153.33147,219.89291 C 153.32454,219.21 152.89614,219.01276 151.43275,219.01874 C 148.24798,219.03174 148.07641,219.34447 148.2084,224.89551 C 148.34435,230.61236 147.53246,234.32381 145.18079,238.736 C 143.20725,242.43874 139.0403,246.40063 135.33566,248.09667 C 131.9171,249.66173 126.45261,250.108 123.33826,249.07644 L 123.33826,249.07644 z M 104.44881,109.9572 C 116.13227,105.25631 124.55558,92.674832 126.13809,77.56096 C 128.31635,56.757402 117.64044,38.126644 101.06762,33.809975 C 87.482386,30.271471 72.760779,39.487461 66.61431,55.378363 C 62.721855,65.441789 62.57974,78.450127 66.252231,88.51962 C 70.28793,99.584988 78.839554,108.21767 88.452974,110.93079 C 92.576056,112.09441 100.30641,111.62391 104.4488,109.9572 L 104.44881,109.9572 z M 170.70834,110.43957 C 181.36135,106.68517 190.13351,95.547908 192.84121,82.339356 C 193.84696,77.433187 193.88041,67.52575 192.90668,62.949483 C 190.99461,53.963197 187.84662,47.915575 182.05623,42.104476 C 177.28517,37.316359 173.53452,35.045992 168.39372,33.83422 C 152.57812,30.10622 137.23875,41.38811 132.10669,60.522835 C 130.56357,66.276319 130.56475,78.369083 132.10901,84.207874 C 135.59033,97.370673 144.80755,107.95612 155.34177,110.88939 C 158.99001,111.90525 167.2343,111.66392 170.70834,110.43957 z"
       id="path4815" />
    <path
       style="opacity:1;fill:#1b86ff;fill-opacity:1;fill-rule:nonzero;stroke:none;stroke-width:5;stroke-linejoin:miter;stroke-miterlimit:4;stroke-dasharray:none;stroke-dashoffset:0;stroke-opacity:1"
       d="M 123.33826,249.07644 C 118.29184,247.40492 114.86002,244.84385 112.07197,240.6687 C 107.64806,234.04384 106.52455,226.24937 108.79172,217.9115 C 108.97433,217.23992 108.54833,216.99289 106.73979,216.72168 C 105.48448,216.53344 104.30091,216.39243 104.10964,216.40834 C 103.91837,216.42425 103.37826,217.67708 102.90941,219.19242 C 101.78821,222.81613 100.43979,224.92423 97.460682,227.71084 C 91.73374,233.06773 83.276518,234.9591 75.139467,232.70276 C 70.704207,231.47289 67.809729,229.70174 64.732256,226.33449 C 61.530991,222.83178 60.006128,218.9961 60.01782,214.47559 C 60.028004,210.53734 60.994046,207.6367 63.42012,204.25978 L 65.230887,201.73934 L 63.384688,199.91847 L 61.53851,198.09764 L 60.025484,199.86142 C 59.193333,200.8315 57.677808,203.38492 56.657653,205.53569 L 54.802827,209.44619 L 51.275268,210.57506 C 48.161437,211.57154 46.713389,211.70144 38.928812,211.68263 C 30.624761,211.66257 29.874555,211.57974 26.078418,210.26386 C 21.356417,208.62706 18.418112,206.99995 15.606148,204.46479 C 6.3470617,196.11714 14.738142,184.79685 32.307664,181.93298 C 34.625094,181.55523 36.786681,181.02581 37.111197,180.75649 C 37.451923,180.47371 37.618812,179.40265 37.506182,178.2216 L 37.311134,176.17638 L 34.788939,176.17638 C 28.939263,176.17638 20.787079,169.57708 20.787079,164.84169 C 20.787079,158.99424 28.680925,153.60498 41.952434,150.39175 C 45.788896,149.46288 64.305149,149.47392 68.409127,150.40752 C 71.198131,151.04198 71.745573,151.41555 75.464245,155.22186 C 77.681568,157.49143 81.044904,160.68406 82.938321,162.3166 C 86.682573,165.54495 87.031045,165.57627 89.045256,162.86543 L 90.078418,161.47494 L 87.558733,159.42129 C 83.028853,155.72926 76.036531,148.24342 72.584507,143.3902 C 70.723488,140.77378 67.738709,135.68504 65.951668,132.08189 C 48.78648,97.472272 54.704555,54.773866 80.342214,28.2554 C 88.372707,19.949012 96.650981,14.440129 106.54632,10.817547 C 132.2877,1.3938847 160.45856,9.6209688 179.25098,32.050394 C 190.13162,45.036815 197.14295,61.848295 199.21715,79.924409 C 199.97828,86.557249 199.54149,101.22581 198.40688,107.13701 C 194.59788,126.98143 186.56896,142.14803 172.97871,155.17074 L 167.29545,160.61666 L 168.97477,162.34927 C 169.89839,163.30221 170.82528,164.08189 171.03453,164.08189 C 171.24379,164.08189 174.09063,161.51944 177.36087,158.38755 C 183.30664,152.69334 183.30685,152.6932 187.08629,151.833 C 197.1157,149.5503 210.96089,149.39462 219.326,151.47048 C 227.4454,153.48537 233.95243,157.6293 233.95243,160.78517 C 233.95243,163.55469 228.40602,167.31705 221.35401,169.33121 C 217.58789,170.40686 208.74867,171.62045 204.5981,171.63171 L 201.19653,171.64094 L 201.19653,174.16063 L 201.19653,176.68031 L 208.71126,176.68031 C 216.90757,176.68031 221.39494,177.33511 227.69735,179.45075 C 236.23918,182.31814 242.54171,186.95507 243.2854,190.91928 C 244.22655,195.93601 237.68795,201.33059 226.64535,204.64799 C 220.97818,206.35051 220.70352,206.58923 221.41518,209.19378 C 221.71668,210.2972 222.02282,211.26429 222.0955,211.34286 C 222.1682,211.42141 223.94861,211.01357 226.05202,210.43651 C 230.48286,209.22094 231.27968,209.43946 234.63173,212.78955 C 240.89216,219.04632 240.20389,227.3356 232.94776,233.07124 C 229.87241,235.50216 225.90762,237.0411 220.80358,237.78503 C 211.29562,239.17084 200.25689,234.14953 197.20247,227.04935 L 196.17346,224.65737 L 194.10598,225.18213 C 192.96886,225.47078 191.92123,226.01252 191.7779,226.38603 C 191.63456,226.75953 191.90977,228.15653 192.38945,229.49047 C 193.20245,231.75133 193.20535,232.02457 192.43223,233.51961 C 187.44589,243.16214 173.12687,246.73898 163.06689,240.85495 C 157.72218,237.72886 154.57316,232.3381 153.78502,224.96545 C 153.15027,219.02782 153.14345,219.01102 151.36379,219.01102 C 148.36582,219.01102 148.28314,219.16516 148.28314,224.75434 C 148.28314,227.73638 147.95993,231.1268 147.51152,232.84835 C 145.76432,239.55631 141.02442,245.49227 135.33566,248.09667 C 131.9171,249.66173 126.45261,250.108 123.33826,249.07644 L 123.33826,249.07644 z M 103.68472,110.12958 C 115.90356,105.54528 124.49299,93.050739 126.07269,77.563107 C 128.29417,55.783378 116.43023,36.442008 99.03034,33.476923 C 83.41436,30.815839 67.728968,44.409257 64.402137,63.486735 C 61.722084,78.855237 65.72546,93.10464 75.464245,102.86069 C 79.729855,107.13385 83.657001,109.583 88.371246,110.91006 C 92.241971,111.99967 99.715488,111.61877 103.68472,110.12958 z M 167.48996,111.16084 C 172.7335,110.17259 177.30942,107.50771 182.11184,102.64548 C 185.88311,98.827243 186.84753,97.475618 189.01452,92.971288 C 192.34593,86.046599 193.17532,82.597579 193.49583,74.335945 C 193.7996,66.505706 193.05346,61.636339 190.55847,55.166624 C 186.4637,44.548546 177.78709,36.262597 168.20876,33.823199 C 152.76232,29.88932 136.63224,42.038037 132.13577,60.992338 C 130.63999,67.297603 130.63999,77.433106 132.13577,83.738371 C 134.82703,95.083021 142.10205,104.80623 151.18253,109.19471 C 156.10735,111.57481 161.70963,112.25027 167.48995,111.16085 L 167.48996,111.16084 z"
       id="path4817" />
    <path
       sodipodi:type="arc"
       style="opacity:1;fill:#ff4a1b;fill-opacity:1;fill-rule:nonzero;stroke:none;stroke-width:5;stroke-linejoin:miter;stroke-miterlimit:4;stroke-dasharray:none;stroke-dashoffset:0;stroke-opacity:1"
       id="path4819"
       sodipodi:cx="132.03149"
       sodipodi:cy="144.37796"
       sodipodi:rx="12.598426"
       sodipodi:ry="13.354331"
       d="M 144.62992,144.37796 A 12.598426,13.354331 0 1 1 119.43307,144.37796 A 12.598426,13.354331 0 1 1 144.62992,144.37796 z"
       transform="translate(-2.519685,-12.094488)" />
  </g>
</svg>
