<?xml version="1.0" encoding="UTF-8" standalone="no"?>
<!-- Created with Inkscape (http://www.inkscape.org/) -->
<svg
   xmlns:dc="http://purl.org/dc/elements/1.1/"
   xmlns:cc="http://creativecommons.org/ns#"
   xmlns:rdf="http://www.w3.org/1999/02/22-rdf-syntax-ns#"
   xmlns:svg="http://www.w3.org/2000/svg"
   xmlns="http://www.w3.org/2000/svg"
   xmlns:sodipodi="http://sodipodi.sourceforge.net/DTD/sodipodi-0.dtd"
   xmlns:inkscape="http://www.inkscape.org/namespaces/inkscape"
   width="256"
   height="256"
   id="svg2"
   sodipodi:version="0.32"
   inkscape:version="0.46"
   version="1.0"
   sodipodi:docname="settings.svg"
   inkscape:output_extension="org.inkscape.output.svg.inkscape"
   inkscape:export-filename="D:\Garage\projekte\blackfisk\trunk\graphic\logo.ico.png"
   inkscape:export-xdpi="5.6300001"
   inkscape:export-ydpi="5.6300001">
  <sodipodi:namedview
     id="base"
     pagecolor="#ffffff"
     bordercolor="#666666"
     borderopacity="1.0"
     inkscape:pageopacity="0.0"
     inkscape:pageshadow="2"
     inkscape:zoom="1.984375"
     inkscape:cx="128"
     inkscape:cy="128"
     inkscape:document-units="px"
     inkscape:current-layer="svg2"
     showgrid="false"
     borderlayer="false"
     inkscape:window-width="1024"
     inkscape:window-height="721"
     inkscape:window-x="-4"
     inkscape:window-y="-4" />
  <defs
     id="defs4">
    <inkscape:perspective
       id="perspective10"
       inkscape:persp3d-origin="372.04724 : 350.78739 : 1"
       inkscape:vp_z="744.09448 : 526.18109 : 1"
       inkscape:vp_y="0 : 1000 : 0"
       inkscape:vp_x="0 : 526.18109 : 1"
       sodipodi:type="inkscape:persp3d" />
    <clipPath
       id="clipPath">
      <path
         sodipodi:nodetypes="ccccccccccccccccccccccccccccccccccszsc"
         id="path3312"
         d="M 102.5625,14.3125 L 102.125,54.1875 L 90.09375,62.4375 L 58.71875,31.3125 L 26.5,63.125 L 63.125,94.5625 L 58.6875,105.875 L 18.21875,105.6875 L 18.65625,145.75 L 60.625,146.0625 L 64.21875,160.875 L 27.09375,175.375 L 41.71875,213.75 L 84,195.0625 L 99.0625,202.125 L 99.5625,241.6875 L 150.65625,241.6875 L 151.25,202.3125 L 164.6875,198.09375 L 198.1875,224.03125 L 227.25,188.84375 L 193.46875,160.09375 L 198.1875,149.46875 L 237.78125,150.28125 L 237.65625,110.40625 L 196.3125,109.90625 L 194.65625,95.75 L 229.09375,70.6875 L 200.6875,35.875 L 164.46875,60.59375 L 151.75,54.5 L 151.125,14.8125 L 102.5625,14.3125 z M 128,84.657234 C 158.04271,84.657231 169.33514,92.655875 169.33514,125.48031 C 169.33514,158.30475 158.54665,165.79946 128.50394,165.79946 C 98.461229,165.79946 88.68061,158.30475 88.68061,125.48031 C 88.680614,92.655875 97.957291,84.657234 128,84.657234 z"
         style="fill:#7ebee2;fill-opacity:1;fill-rule:evenodd;stroke:#000000;stroke-width:4;stroke-linecap:butt;stroke-linejoin:round;stroke-opacity:1;stroke-miterlimit:4;stroke-dasharray:none" />
    </clipPath>
    <filter
       y="-0.5"
       x="-0.5"
       width="10.0"
       height="10.0"
       id="filter">
      <feGaussianBlur
         id="feGaussianBlur3170"
         stdDeviation="5.0" />
    </filter>
  </defs>
  <metadata
     id="metadata7">
    <rdf:RDF>
      <cc:Work
         rdf:about="">
        <dc:format>image/svg+xml</dc:format>
        <dc:type
           rdf:resource="http://purl.org/dc/dcmitype/StillImage" />
      </cc:Work>
    </rdf:RDF>
  </metadata>
  <g
     id="layer1"
     inkscape:groupmode="layer"
     inkscape:label="Ebene 1">
    <path
       transform="translate(0,-18)"
       sodipodi:open="true"
       sodipodi:end="4.4494955"
       sodipodi:start="1.3317553"
       d="M 29.367323,202.07874 A 3.7795277,0 0 0 1 27.490233,202.07874"
       sodipodi:ry="0"
       sodipodi:rx="3.7795277"
       sodipodi:cy="202.07874"
       sodipodi:cx="28.472441"
       id="path2481"
       style="opacity:1;fill:none;fill-opacity:1;fill-rule:nonzero;stroke:#000000;stroke-width:5;stroke-linejoin:miter;stroke-miterlimit:4;stroke-dasharray:none;stroke-dashoffset:0;stroke-opacity:1"
       sodipodi:type="arc" />
    <path
       transform="translate(0,-18)"
       sodipodi:open="true"
       sodipodi:end="4.4494955"
       sodipodi:start="1.3317553"
       d="M 24.931548,201.07086 A 1.007874,0 0 0 1 24.430991,201.07086"
       sodipodi:ry="0"
       sodipodi:rx="1.007874"
       sodipodi:cy="201.07086"
       sodipodi:cx="24.692913"
       id="path2483"
       style="opacity:1;fill:none;fill-opacity:1;fill-rule:nonzero;stroke:#000000;stroke-width:5;stroke-linejoin:miter;stroke-miterlimit:4;stroke-dasharray:none;stroke-dashoffset:0;stroke-opacity:1"
       sodipodi:type="arc" />
    <path
       sodipodi:nodetypes="ccccccccccccccccccccccccccccccccccszsc"
       id="path3177"
       d="M 102.5625,14.3125 L 102.125,54.1875 L 90.09375,62.4375 L 58.71875,31.3125 L 26.5,63.125 L 63.125,94.5625 L 58.6875,105.875 L 18.21875,105.6875 L 18.65625,145.75 L 60.625,146.0625 L 64.21875,160.875 L 27.09375,175.375 L 41.71875,213.75 L 84,195.0625 L 99.0625,202.125 L 99.5625,241.6875 L 150.65625,241.6875 L 151.25,202.3125 L 164.6875,198.09375 L 198.1875,224.03125 L 227.25,188.84375 L 193.46875,160.09375 L 198.1875,149.46875 L 237.78125,150.28125 L 237.65625,110.40625 L 196.3125,109.90625 L 194.65625,95.75 L 229.09375,70.6875 L 200.6875,35.875 L 164.46875,60.59375 L 151.75,54.5 L 151.125,14.8125 L 102.5625,14.3125 z M 128,84.657234 C 158.04271,84.657231 169.33514,92.655875 169.33514,125.48031 C 169.33514,158.30475 158.54665,165.79946 128.50394,165.79946 C 98.461229,165.79946 88.68061,158.30475 88.68061,125.48031 C 88.680614,92.655875 97.957291,84.657234 128,84.657234 z"
       style="fill:#7ebee2;fill-opacity:1;fill-rule:evenodd;stroke:#000000;stroke-width:4;stroke-linecap:butt;stroke-linejoin:round;stroke-opacity:1;stroke-miterlimit:4;stroke-dasharray:none" />
    <g
       id="g3179"
       clip-path="url(#clipPath)">
      <g
         id="g3181">
        <path
           sodipodi:nodetypes="ccccccccccccccccccccccccccccccccccszsc"
           id="path3183"
           d="M26.5 63.125L63.125 94.5625M164.6875 198.09375L198.1875 224.03125M128.0 84.657234C158.04271 84.657231 169.33514 92.655875 169.33514 125.48031"
           style="fill:none;stroke:#ffffff;stroke-opacity:1;stroke-width:10;filter:url(#filter);" />
        <path
           sodipodi:nodetypes="ccccccccccccccccccccccccccccccccccszsc"
           id="path3185"
           d="M90.09375 62.4375L58.71875 31.3125M227.25 188.84375L193.46875 160.09375M229.09375 70.6875L200.6875 35.875M128.50394 165.79946C98.461229 165.79946 88.68061 158.30475 88.68061 125.48031"
           style="fill:none;stroke:#000000;stroke-opacity:1;stroke-width:10;filter:url(#filter);" />
      </g>
    </g>
  </g>
</svg>
