<?xml version="1.0" encoding="UTF-8" standalone="no"?>
<!-- Created with Inkscape (http://www.inkscape.org/) -->
<svg
   xmlns:dc="http://purl.org/dc/elements/1.1/"
   xmlns:cc="http://creativecommons.org/ns#"
   xmlns:rdf="http://www.w3.org/1999/02/22-rdf-syntax-ns#"
   xmlns:svg="http://www.w3.org/2000/svg"
   xmlns="http://www.w3.org/2000/svg"
   xmlns:xlink="http://www.w3.org/1999/xlink"
   xmlns:sodipodi="http://sodipodi.sourceforge.net/DTD/sodipodi-0.dtd"
   xmlns:inkscape="http://www.inkscape.org/namespaces/inkscape"
   width="256"
   height="256"
   id="svg2382"
   sodipodi:version="0.32"
   inkscape:version="0.46"
   version="1.0"
   sodipodi:docname="stop_prj.svg"
   inkscape:output_extension="org.inkscape.output.svg.inkscape">
  <defs
     id="defs2384">
    <linearGradient
       inkscape:collect="always"
       id="linearGradient3324">
      <stop
         style="stop-color:#ffffff;stop-opacity:1;"
         offset="0"
         id="stop3326" />
      <stop
         style="stop-color:#ffffff;stop-opacity:0;"
         offset="1"
         id="stop3328" />
    </linearGradient>
    <linearGradient
       inkscape:collect="always"
       id="linearGradient3342">
      <stop
         style="stop-color:#ffffff;stop-opacity:1;"
         offset="0"
         id="stop3344" />
      <stop
         style="stop-color:#ffffff;stop-opacity:0;"
         offset="1"
         id="stop3346" />
    </linearGradient>
    <inkscape:perspective
       sodipodi:type="inkscape:persp3d"
       inkscape:vp_x="0 : 526.18109 : 1"
       inkscape:vp_y="0 : 1000 : 0"
       inkscape:vp_z="744.09448 : 526.18109 : 1"
       inkscape:persp3d-origin="372.04724 : 350.78739 : 1"
       id="perspective2390" />
    <linearGradient
       inkscape:collect="always"
       xlink:href="#linearGradient3324"
       id="linearGradient3393"
       gradientUnits="userSpaceOnUse"
       gradientTransform="matrix(0.5597499,0,0,0.5597499,-69.565307,128.89545)"
       x1="11.716213"
       y1="128.30013"
       x2="243.38695"
       y2="128.30013" />
    <radialGradient
       inkscape:collect="always"
       xlink:href="#linearGradient3342"
       id="radialGradient3395"
       gradientUnits="userSpaceOnUse"
       gradientTransform="matrix(0.5597499,0,0,0.5859105,-69.565307,125.53685)"
       cx="127.55158"
       cy="128.38375"
       fx="127.55158"
       fy="128.38375"
       r="115.83537" />
  </defs>
  <sodipodi:namedview
     id="base"
     pagecolor="#ffffff"
     bordercolor="#666666"
     borderopacity="1.0"
     inkscape:pageopacity="0.0"
     inkscape:pageshadow="2"
     inkscape:zoom="1.984375"
     inkscape:cx="128"
     inkscape:cy="128"
     inkscape:document-units="px"
     inkscape:current-layer="layer1"
     showgrid="false"
     inkscape:window-width="1024"
     inkscape:window-height="721"
     inkscape:window-x="-4"
     inkscape:window-y="-4" />
  <metadata
     id="metadata2387">
    <rdf:RDF>
      <cc:Work
         rdf:about="">
        <dc:format>image/svg+xml</dc:format>
        <dc:type
           rdf:resource="http://purl.org/dc/dcmitype/StillImage" />
      </cc:Work>
    </rdf:RDF>
  </metadata>
  <g
     inkscape:label="Ebene 1"
     inkscape:groupmode="layer"
     id="layer1">
    <text
       xml:space="preserve"
       style="font-size:289.69216919px;font-style:normal;font-variant:normal;font-weight:bold;font-stretch:normal;text-align:center;line-height:100%;writing-mode:lr-tb;text-anchor:middle;fill:#ff0c00;fill-opacity:1;stroke:#000000;stroke-width:1.46809757;stroke-linecap:butt;stroke-linejoin:miter;stroke-miterlimit:4;stroke-dasharray:none;stroke-opacity:1;font-family:Aharoni;-inkscape-font-specification:Aharoni Bold"
       x="128.07072"
       y="224.54048"
       id="text2383"
       sodipodi:linespacing="100%"><tspan
         sodipodi:role="line"
         id="tspan3227"
         x="128.07072"
         y="224.54048"
         style="stroke-width:1.46809757;stroke-linejoin:miter;stroke-miterlimit:4;stroke-dasharray:none">X</tspan></text>
    <g
       id="g3365"
       transform="matrix(0.5871623,0,0,0.5871623,36.796878,96.692501)">
      <g
         transform="translate(-69.124549,16.269745)"
         style="fill:none;fill-opacity:1;stroke:#1b86ff;stroke-opacity:1"
         id="g3301">
        <path
           sodipodi:type="arc"
           style="opacity:1;fill:none;fill-opacity:1;fill-rule:nonzero;stroke:#1b86ff;stroke-width:5;stroke-linejoin:miter;stroke-miterlimit:4;stroke-dasharray:none;stroke-dashoffset:0;stroke-opacity:1"
           id="path3173"
           sodipodi:cx="135.55905"
           sodipodi:cy="160.75591"
           sodipodi:rx="74.582672"
           sodipodi:ry="86.173225"
           d="M 96.050172,233.84499 A 74.582672,86.173225 0 1 1 176.6856,232.64388"
           transform="translate(-7.5590551,-70.409449)"
           sodipodi:start="2.1290817"
           sodipodi:end="7.2699135"
           sodipodi:open="true" />
        <path
           sodipodi:type="arc"
           style="opacity:1;fill:none;fill-opacity:1;fill-rule:nonzero;stroke:#1b86ff;stroke-width:4.75820971;stroke-linejoin:miter;stroke-miterlimit:4;stroke-dasharray:none;stroke-dashoffset:0;stroke-opacity:1"
           id="path2471"
           sodipodi:cx="84.157478"
           sodipodi:cy="199.05511"
           sodipodi:rx="45.390236"
           sodipodi:ry="17.246937"
           d="M 96.046356,182.4103 A 45.390236,17.246937 0 0 1 104.75428,214.42417"
           sodipodi:start="4.9774062"
           sodipodi:end="7.3829883"
           transform="matrix(0.9971582,0,0,1.1073598,117.01806,-28.54184)"
           sodipodi:open="true" />
        <path
           sodipodi:type="arc"
           style="opacity:1;fill:none;fill-opacity:1;fill-rule:nonzero;stroke:#1b86ff;stroke-width:5.96820688;stroke-linejoin:miter;stroke-miterlimit:4;stroke-dasharray:none;stroke-dashoffset:0;stroke-opacity:1"
           id="path2473"
           sodipodi:cx="84.157478"
           sodipodi:cy="199.05511"
           sodipodi:rx="34.021442"
           sodipodi:ry="22.591297"
           d="M 117.59043,203.23883 A 34.021442,22.591297 0 1 1 58.822776,183.97691"
           sodipodi:start="0.18626665"
           sodipodi:end="3.8723507"
           sodipodi:open="true"
           transform="matrix(0.725782,0,0,0.9670437,20.686025,22.15701)" />
        <path
           sodipodi:type="arc"
           style="opacity:1;fill:none;fill-opacity:1;fill-rule:nonzero;stroke:#1b86ff;stroke-width:5;stroke-linejoin:miter;stroke-miterlimit:4;stroke-dasharray:none;stroke-dashoffset:0;stroke-opacity:1"
           id="path2475"
           sodipodi:cx="84.157478"
           sodipodi:cy="199.05511"
           sodipodi:rx="24.188976"
           sodipodi:ry="18.64567"
           d="M 96.047376,182.81746 A 24.188976,18.64567 0 1 1 60.36441,202.41479"
           sodipodi:start="5.2262485"
           sodipodi:end="9.2436032"
           transform="translate(133.42566,23.089909)"
           sodipodi:open="true" />
        <path
           sodipodi:type="arc"
           style="opacity:1;fill:none;fill-opacity:1;fill-rule:nonzero;stroke:#1b86ff;stroke-width:5;stroke-linejoin:miter;stroke-miterlimit:4;stroke-dasharray:none;stroke-dashoffset:0;stroke-opacity:1"
           id="path2477"
           sodipodi:cx="84.157478"
           sodipodi:cy="199.05511"
           sodipodi:rx="37.291336"
           sodipodi:ry="18.141733"
           d="M 59.886515,212.82848 A 37.291336,18.141733 0 0 1 102.0734,183.14423"
           sodipodi:start="2.2794962"
           sodipodi:end="5.2135354"
           transform="translate(-28.842051,-34.358909)"
           sodipodi:open="true" />
        <path
           sodipodi:type="arc"
           style="opacity:1;fill:none;fill-opacity:1;fill-rule:nonzero;stroke:#1b86ff;stroke-width:5;stroke-linejoin:miter;stroke-miterlimit:4;stroke-dasharray:none;stroke-dashoffset:0;stroke-opacity:1"
           id="path2479"
           sodipodi:cx="84.157478"
           sodipodi:cy="199.05511"
           sodipodi:rx="32.755905"
           sodipodi:ry="13.606299"
           d="M 63.073165,188.64228 A 32.755905,13.606299 0 1 1 81.448222,212.61479"
           transform="translate(119.81937,-38.390405)"
           sodipodi:open="true"
           sodipodi:start="4.0130921"
           sodipodi:end="7.9367867" />
        <path
           sodipodi:type="arc"
           style="opacity:1;fill:none;fill-opacity:1;fill-rule:nonzero;stroke:#1b86ff;stroke-width:5;stroke-linejoin:miter;stroke-miterlimit:4;stroke-dasharray:none;stroke-dashoffset:0;stroke-opacity:1"
           id="path2487"
           sodipodi:cx="84.157478"
           sodipodi:cy="199.05511"
           sodipodi:rx="23.181103"
           sodipodi:ry="21.669292"
           d="M 106.51546,204.77826 A 23.181103,21.669292 0 0 1 60.976378,199.04472"
           sodipodi:start="0.26728413"
           sodipodi:end="3.1420724"
           transform="translate(90.087083,25.971799)"
           sodipodi:open="true" />
        <path
           sodipodi:type="arc"
           style="opacity:1;fill:none;fill-opacity:1;fill-rule:nonzero;stroke:#1b86ff;stroke-width:5;stroke-linejoin:miter;stroke-miterlimit:4;stroke-dasharray:none;stroke-dashoffset:0;stroke-opacity:1"
           id="path2489"
           sodipodi:cx="84.157478"
           sodipodi:cy="199.05511"
           sodipodi:rx="30.236219"
           sodipodi:ry="18.141731"
           d="M 102.16847,213.627 A 30.236219,18.141731 0 1 1 82.434395,180.94287"
           sodipodi:start="0.93268944"
           sodipodi:end="4.6553707"
           transform="translate(-44.968035,-2.2486729)"
           sodipodi:open="true" />
        <path
           sodipodi:type="arc"
           style="opacity:1;fill:none;fill-opacity:1;fill-rule:nonzero;stroke:#1b86ff;stroke-width:5.96820688;stroke-linejoin:miter;stroke-miterlimit:4;stroke-dasharray:none;stroke-dashoffset:0;stroke-opacity:1"
           id="path2491"
           sodipodi:cx="84.157478"
           sodipodi:cy="199.05511"
           sodipodi:rx="31.938431"
           sodipodi:ry="27.281296"
           d="M 114.9939,191.95055 A 31.938431,27.281296 0 1 1 54.349452,189.25822"
           sodipodi:start="6.0197292"
           sodipodi:end="9.7920885"
           transform="matrix(0.725782,0,0,0.9670437,66.945425,33.665295)"
           sodipodi:open="true" />
      </g>
      <path
         transform="translate(-76.683601,12.6162)"
         d="M 131.52756,76.09449 A 28.976377,36.787403 0 1 1 73.5748,76.09449 A 28.976377,36.787403 0 1 1 131.52756,76.09449 z"
         sodipodi:ry="36.787403"
         sodipodi:rx="28.976377"
         sodipodi:cy="76.09449"
         sodipodi:cx="102.55118"
         id="path3265"
         style="opacity:1;fill:#000000;fill-opacity:1;fill-rule:nonzero;stroke:#000000;stroke-width:5;stroke-linejoin:miter;stroke-miterlimit:4;stroke-dasharray:none;stroke-dashoffset:0;stroke-opacity:1"
         sodipodi:type="arc" />
      <path
         transform="translate(-9.4080102,12.6162)"
         d="M 131.52756,76.09449 A 28.976377,36.787403 0 1 1 73.5748,76.09449 A 28.976377,36.787403 0 1 1 131.52756,76.09449 z"
         sodipodi:ry="36.787403"
         sodipodi:rx="28.976377"
         sodipodi:cy="76.09449"
         sodipodi:cx="102.55118"
         id="path3271"
         style="opacity:1;fill:#000000;fill-opacity:1;fill-rule:nonzero;stroke:#000000;stroke-width:5;stroke-linejoin:miter;stroke-miterlimit:4;stroke-dasharray:none;stroke-dashoffset:0;stroke-opacity:1"
         sodipodi:type="arc" />
      <path
         transform="translate(-71.644234,6.6949419)"
         d="M 178.89763,64 A 10.582677,13.102363 0 1 1 157.73228,64 A 10.582677,13.102363 0 1 1 178.89763,64 z"
         sodipodi:ry="13.102363"
         sodipodi:rx="10.582677"
         sodipodi:cy="64"
         sodipodi:cx="168.31496"
         id="path3273"
         style="opacity:1;fill:#ffffff;fill-opacity:1;fill-rule:nonzero;stroke:none;stroke-width:5;stroke-linejoin:miter;stroke-miterlimit:4;stroke-dasharray:none;stroke-dashoffset:0;stroke-opacity:1"
         sodipodi:type="arc" />
      <path
         transform="translate(-59.549742,21.309115)"
         d="M 173.35433,64 A 5.0393696,5.5433068 0 1 1 163.27559,64 A 5.0393696,5.5433068 0 1 1 173.35433,64 z"
         sodipodi:ry="5.5433068"
         sodipodi:rx="5.0393696"
         sodipodi:cy="64"
         sodipodi:cx="168.31496"
         id="path3277"
         style="opacity:1;fill:#ffffff;fill-opacity:1;fill-rule:nonzero;stroke:none;stroke-width:5;stroke-linejoin:miter;stroke-miterlimit:4;stroke-dasharray:none;stroke-dashoffset:0;stroke-opacity:1"
         sodipodi:type="arc" />
      <path
         transform="translate(-139.42376,6.6949419)"
         d="M 178.89763,64 A 10.582677,13.102363 0 1 1 157.73228,64 A 10.582677,13.102363 0 1 1 178.89763,64 z"
         sodipodi:ry="13.102363"
         sodipodi:rx="10.582677"
         sodipodi:cy="64"
         sodipodi:cx="168.31496"
         id="path3279"
         style="opacity:1;fill:#ffffff;fill-opacity:1;fill-rule:nonzero;stroke:none;stroke-width:5;stroke-linejoin:miter;stroke-miterlimit:4;stroke-dasharray:none;stroke-dashoffset:0;stroke-opacity:1"
         sodipodi:type="arc" />
      <path
         transform="translate(-127.32927,21.309115)"
         d="M 173.35433,64 A 5.0393696,5.5433068 0 1 1 163.27559,64 A 5.0393696,5.5433068 0 1 1 173.35433,64 z"
         sodipodi:ry="5.5433068"
         sodipodi:rx="5.0393696"
         sodipodi:cy="64"
         sodipodi:cx="168.31496"
         id="path3281"
         style="opacity:1;fill:#ffffff;fill-opacity:1;fill-rule:nonzero;stroke:none;stroke-width:5;stroke-linejoin:miter;stroke-miterlimit:4;stroke-dasharray:none;stroke-dashoffset:0;stroke-opacity:1"
         sodipodi:type="arc" />
      <path
         id="path3320"
         d="M 54.213711,265.34449 C 47.238691,263.02839 42.414181,258.09939 39.862331,250.6823 C 38.348231,246.28148 38.089501,242.1813 39.036851,237.6004 C 39.484911,235.43381 39.851511,233.59894 39.851511,233.52291 C 39.851511,233.35352 35.559991,232.25714 34.897031,232.25714 C 34.634871,232.25714 34.269831,233.10754 34.085861,234.14691 C 33.230101,238.98139 28.619219,244.87867 23.754726,247.36036 C 17.328753,250.63863 9.1546578,250.6786 1.8947898,247.46722 C -1.7661922,245.84778 -6.5942962,240.75337 -7.9830312,237.04454 C -10.168157,231.20883 -9.3252012,225.58216 -5.4879532,220.39009 L -3.6076182,217.84588 L -5.5997112,216.17342 L -7.5918042,214.50096 L -9.0262152,215.87519 C -10.555831,217.34066 -13.241084,222.0946 -13.736661,224.2145 C -14.075639,225.66455 -16.596025,226.74471 -22.027901,227.76785 C -26.549829,228.61961 -38.116952,228.07621 -42.038257,226.82784 C -51.499412,223.8158 -57.408336,218.54111 -57.408336,213.10754 C -57.408336,210.63776 -55.631524,207.35626 -53.076428,205.10718 C -48.852004,201.38868 -39.97141,198.00423 -34.37972,197.98171 C -31.463431,197.96997 -31.014101,197.48217 -31.420884,194.76955 L -31.769311,192.44612 L -34.168626,192.44612 C -36.646675,192.44612 -40.627813,190.67999 -44.204959,187.99374 C -46.241999,186.46403 -48.33747,183.00548 -48.33747,181.17306 C -48.33747,175.77911 -41.004042,170.30721 -29.943769,167.44846 C -22.972002,165.64647 -10.570959,165.20008 -2.9381982,166.47637 L 2.2895588,167.35051 L 6.2687968,171.6036 C 8.4573698,173.94281 11.946222,177.24435 14.021792,178.94036 L 17.79556,182.02403 L 19.480503,180.05397 C 20.407223,178.97044 21.117845,177.94302 21.05966,177.77082 C 21.001476,177.59862 19.034826,175.89382 16.689332,173.98237 C 4.5330108,164.07564 -5.6114982,147.38208 -10.008767,130.04865 C -14.393084,112.76629 -13.747511,93.779838 -8.2080992,77.09028 C 2.1438048,45.901291 26.757525,25.203082 55.725521,23.327111 C 63.382341,22.831252 73.300011,24.358272 80.573491,27.152935 C 103.96313,36.13986 121.30309,57.064267 127.9738,84.351635 C 129.99893,92.635709 130.3088,95.719935 130.27746,107.28077 C 130.24953,117.5781 130.12295,119.20475 128.89894,124.99406 C 124.80492,144.35791 116.82956,159.12357 103.8163,171.43232 L 98.166861,176.7759 L 99.623341,178.52738 C 100.42443,179.4907 101.28138,180.29523 101.52769,180.31525 C 102.32546,180.38006 108.92438,174.69022 111.54249,171.68012 C 112.9432,170.0697 114.18756,168.85041 114.30774,168.97059 C 114.42792,169.09077 115.5827,168.86125 116.87391,168.46055 C 123.86165,166.29206 137.44559,165.60492 145.9758,166.98844 C 156.32631,168.66722 164.82788,173.14188 164.82788,176.91092 C 164.82788,179.64438 160.55281,182.79048 153.74127,185.06973 C 149.72627,186.41322 139.84276,187.91068 134.99055,187.91068 L 132.07198,187.91068 L 132.07198,190.62901 L 132.07198,193.34729 L 141.01686,193.27468 C 149.37931,193.20676 150.28988,193.29336 155.00111,194.60466 C 162.2054,196.60986 168.59668,199.83696 171.49015,202.93031 C 174.57869,206.23223 174.98992,208.23742 173.20361,211.28553 C 170.79662,215.39272 164.60206,219.06256 156.43394,221.22035 C 154.06626,221.84582 152.02313,222.63365 151.89365,222.97107 C 151.59802,223.74149 152.643,227.72171 153.1409,227.72171 C 153.34366,227.72171 155.15543,227.26562 157.16704,226.70817 C 161.40885,225.5327 162.20236,225.7564 165.50718,229.05929 C 171.84209,235.3905 171.04826,243.83575 163.58827,249.47402 C 158.30234,253.46914 150.32075,255.16601 143.43114,253.75942 C 135.91425,252.22476 129.41088,247.61252 127.96656,242.79182 C 127.64231,241.70957 127.22653,240.82407 127.04261,240.82407 C 126.8587,240.82407 125.63966,241.18817 124.33365,241.63317 C 121.75679,242.51121 121.69708,242.78101 123.35793,246.0437 C 124.32121,247.93604 123.92947,249.26749 121.50814,252.33072 C 112.19412,264.11385 92.512341,261.98434 86.351301,248.52684 C 85.504431,246.67704 84.978991,244.27854 84.646491,240.7447 C 84.382151,237.93517 84.065101,235.47348 83.941961,235.27424 C 83.734071,234.93786 82.497941,235.02419 79.835951,235.561 C 78.789791,235.77198 78.759471,235.96225 79.018011,240.69578 C 79.217971,244.35692 79.072811,246.44305 78.449221,248.86979 C 76.688251,255.72268 71.909251,261.73107 66.083801,264.41617 C 62.794451,265.93232 57.282171,266.36341 54.213711,265.34451 L 54.213711,265.34449 z M 32.040481,127.37745 C 35.339451,126.73602 40.173691,124.22067 43.545811,121.391 C 49.340121,116.52879 53.791741,109.18335 56.067431,100.72959 C 57.610411,94.997707 57.721031,82.739308 56.278511,77.339079 C 51.722051,60.281512 39.879251,49.328013 25.993239,49.328013 C 11.949563,49.328013 0.013809846,60.176587 -4.2952502,76.857638 C -5.7779282,82.597349 -6.1330482,92.228987 -5.0546272,97.453997 C -1.5581662,114.39461 9.1954358,126.28662 22.46568,127.8877 C 25.708913,128.27901 28.043633,128.15459 32.040481,127.37745 L 32.040481,127.37745 z M 100.32395,127.09992 C 109.80096,124.50486 118.62781,115.2995 122.2062,104.27932 C 124.18776,98.176809 124.69192,94.831146 124.63955,88.131162 C 124.60047,83.131392 124.32524,80.805818 123.30535,76.857638 C 118.9963,60.176592 107.06054,49.328013 93.016861,49.328013 C 79.130851,49.328013 67.288041,60.281517 62.731591,77.339079 C 61.293291,82.723525 61.400161,94.990239 62.935381,100.72959 C 66.875191,115.4584 77.668841,126.44057 89.578671,127.83825 C 93.690111,128.32075 96.594321,128.12119 100.32395,127.09992 z"
         style="opacity:1;fill:#ffffff;fill-opacity:1;fill-rule:nonzero;stroke:none;stroke-width:5;stroke-linejoin:miter;stroke-miterlimit:4;stroke-dasharray:none;stroke-dashoffset:0;stroke-opacity:1" />
      <path
         id="path3322"
         d="M 54.213711,265.34449 C 47.238691,263.02839 42.414181,258.09939 39.862331,250.6823 C 38.348231,246.28148 38.089501,242.1813 39.036851,237.6004 C 39.484911,235.43381 39.851511,233.59894 39.851511,233.52291 C 39.851511,233.20744 35.230581,232.2505 34.848271,232.48678 C 34.619421,232.62822 34.162551,233.82497 33.833021,235.14621 C 33.005531,238.46408 31.307461,241.20125 28.374961,243.94426 C 25.454848,246.67567 22.841879,248.10106 18.847614,249.14143 C 13.389689,250.56304 6.3165698,249.80581 1.3403678,247.26714 C -2.1235282,245.49999 -6.6929722,240.48984 -7.9830312,237.04454 C -10.121699,231.33292 -9.3409752,225.74624 -5.6764962,220.53944 C -4.7494732,219.22227 -4.0073862,217.97502 -4.0273972,217.76779 C -4.0474092,217.56056 -4.8483112,216.73875 -5.8071822,215.94156 C -7.4868742,214.54507 -7.5866242,214.52473 -8.5366962,215.38453 C -10.035163,216.74062 -12.477609,220.75522 -13.334922,223.27129 C -14.01618,225.27066 -14.362132,225.60882 -16.478784,226.34425 C -21.074523,227.94105 -24.979561,228.37421 -32.106641,228.07776 C -39.398821,227.77445 -42.525841,227.06969 -47.896016,224.5192 C -53.433825,221.88909 -57.408336,217.12098 -57.408336,213.10754 C -57.408336,208.89372 -53.361586,204.25319 -47.094625,201.28049 C -43.329066,199.49432 -37.548007,197.99446 -34.37972,197.98171 C -31.482304,197.97004 -31.062781,197.50886 -31.471333,194.78445 L -31.821982,192.44612 L -34.349095,192.44612 C -36.93655,192.44612 -40.284198,190.93335 -44.204959,187.99235 C -46.241485,186.46474 -48.33747,183.00603 -48.33747,181.17306 C -48.33747,175.79365 -41.089228,170.37155 -29.943769,167.41354 C -25.310098,166.18376 -24.072716,166.07259 -14.57369,166.03275 C -7.4141922,166.00273 -3.2374762,166.20775 -0.96739115,166.70066 C 2.1547608,167.37858 2.4800218,167.59546 5.9762458,171.33069 C 9.2614468,174.84047 17.168239,181.86344 17.834514,181.86344 C 17.977793,181.86344 18.782742,180.92828 19.623289,179.78532 L 21.151548,177.70721 L 16.65252,173.98343 C 7.3119008,166.25238 -1.3314302,154.06549 -6.1726722,141.80045 C -17.114994,114.07865 -14.587004,82.888716 0.61749585,58.024343 C 3.8107838,52.80227 6.8127818,49.014236 11.83145,43.874165 C 30.43941,24.816073 57.414261,18.254546 80.573491,27.152935 C 103.98132,36.146855 121.2979,57.043031 127.9738,84.351635 C 129.99893,92.635709 130.3088,95.719935 130.27746,107.28077 C 130.24958,117.55883 130.12153,119.21133 128.90816,124.94853 C 124.77765,144.47898 116.90594,159.05132 103.77981,171.46683 L 98.093881,176.84492 L 99.933571,178.6846 L 101.77323,180.52427 L 104.19821,178.57698 C 105.53192,177.50597 108.28222,174.92704 110.30996,172.84603 C 112.3377,170.76502 114.26526,169.01932 114.59342,168.96667 C 114.9216,168.91403 116.55072,168.51841 118.21371,168.08751 C 126.31508,165.98833 141.04863,165.71389 149.20584,167.51021 C 157.33641,169.30066 164.82788,173.74876 164.82788,176.78588 C 164.82788,179.64695 160.67591,182.74929 153.74127,185.06973 C 149.72627,186.41322 139.84276,187.91068 134.99055,187.91068 L 132.07198,187.91068 L 132.07198,190.58523 L 132.07198,193.25978 L 141.01686,193.2309 C 149.30703,193.20414 150.33059,193.30469 155.00111,194.60466 C 162.2054,196.60986 168.59668,199.83696 171.49015,202.93031 C 174.57869,206.23223 174.98992,208.23742 173.20361,211.28553 C 170.82136,215.3505 165.78048,218.39372 156.89088,221.13359 C 154.04993,222.00921 151.72679,222.99935 151.72833,223.3339 C 151.73333,224.41155 152.77027,227.72171 153.10289,227.72171 C 153.28006,227.72171 155.07602,227.25843 157.09391,226.69221 C 161.35167,225.49749 162.17511,225.72916 165.50718,229.05929 C 171.85748,235.40588 171.05211,243.81259 163.54754,249.51492 C 160.35834,251.93825 156.5664,253.35953 151.47631,254.03943 C 141.69165,255.34639 131.24629,250.45642 127.96173,243.03111 C 126.90601,240.64455 126.93275,240.6516 123.63103,241.88676 C 122.27132,242.39544 122.18559,243.66403 123.34641,246.09831 C 124.13177,247.74518 124.13447,248.0075 123.38256,249.58426 C 120.46908,255.69389 112.9867,259.97368 105.21871,259.97368 C 96.690511,259.97368 89.641211,255.71295 86.378541,248.58634 C 85.322031,246.27864 84.247191,240.12951 84.206921,236.16265 C 84.200241,235.50406 83.783271,235.28251 82.560171,235.28764 C 78.792751,235.30346 78.785391,235.31488 79.046471,240.73667 C 79.217011,244.27823 79.052881,246.50354 78.446591,248.87014 C 76.694091,255.71077 71.918641,261.75342 66.193681,264.37439 C 62.790241,265.93253 57.318861,266.3756 54.213711,265.34451 L 54.213711,265.34449 z M 33.833401,126.78953 C 46.091141,122.61071 55.081791,110.26244 57.007871,94.960391 C 60.032421,70.931374 45.274081,49.328013 25.834121,49.328013 C 18.372568,49.328013 12.255589,52.110834 6.0274058,58.338749 C 2.2426978,62.123286 1.3582028,63.363384 -0.84468215,67.973682 C -3.8364002,74.234873 -4.8742582,77.855836 -5.4426242,84.015378 C -6.5769812,96.30873 -3.2310262,108.17202 3.8383738,116.92167 C 7.9178898,121.97081 14.162794,126.10799 19.684774,127.41975 C 23.363469,128.29364 30.331905,127.98324 33.833401,126.78954 L 33.833401,126.78953 z M 102.40687,126.48727 C 106.85995,124.77247 112.07191,120.80392 115.44418,116.56027 C 121.49324,108.94818 124.5414,99.879305 124.57868,89.383355 C 124.61141,80.168136 123.28273,74.430012 119.32947,66.713839 C 116.67983,61.54212 110.11877,54.739767 105.57499,52.453485 C 90.477561,44.856968 74.278761,51.517695 65.991761,68.729588 C 57.806831,85.729474 61.246381,107.83228 73.959631,119.93169 C 77.424611,123.22937 80.717491,125.24807 85.205841,126.82615 C 88.044701,127.82427 89.220511,127.95134 94.024731,127.77914 C 98.137671,127.63172 100.30056,127.29838 102.40687,126.48727 L 102.40687,126.48727 z"
         style="opacity:1;fill:url(#linearGradient3393);fill-opacity:1;fill-rule:nonzero;stroke:none;stroke-width:5;stroke-linejoin:miter;stroke-miterlimit:4;stroke-dasharray:none;stroke-dashoffset:0;stroke-opacity:1" />
      <path
         id="path3332"
         d="M 54.213711,265.34449 C 47.238691,263.02839 42.414181,258.09939 39.862331,250.6823 C 38.348231,246.28148 38.089501,242.1813 39.036851,237.6004 C 39.484911,235.43381 39.851511,233.59894 39.851511,233.52291 C 39.851511,233.20744 35.230581,232.2505 34.848271,232.48678 C 34.619421,232.62822 34.162551,233.82497 33.833021,235.14621 C 33.005531,238.46408 31.307461,241.20125 28.374961,243.94426 C 25.454848,246.67567 22.841879,248.10106 18.847614,249.14143 C 13.007427,250.66261 5.4544088,249.6711 0.42361085,246.72285 C -2.9176572,244.76475 -6.7565492,240.31137 -8.0293422,236.91688 C -9.3359002,233.43234 -9.4541342,228.46333 -8.3067192,225.25986 C -7.8713882,224.04442 -6.7003452,221.91576 -5.7044292,220.52952 L -3.8936622,218.00908 L -5.6854002,216.21734 C -7.4397512,214.46299 -7.4984552,214.44493 -8.4999642,215.35128 C -9.9528202,216.6661 -12.28182,220.50909 -13.312295,223.29192 C -14.10067,225.42094 -14.431318,225.74246 -16.524148,226.41497 C -21.356501,227.96781 -25.113059,228.36865 -32.106641,228.07776 C -39.398821,227.77445 -42.525841,227.06969 -47.896016,224.5192 C -53.433825,221.88909 -57.408336,217.12098 -57.408336,213.10754 C -57.408336,206.36393 -47.222952,199.19303 -36.18773,198.16741 C -31.636579,197.74442 -31.059717,197.30299 -31.495653,194.57681 L -31.836365,192.44612 L -34.428158,192.44612 C -39.245776,192.44612 -47.087192,186.77633 -48.155312,182.52062 C -49.581347,176.83886 -42.112275,170.64024 -29.943769,167.40677 C -25.284282,166.16863 -24.106641,166.06473 -14.321722,166.02855 C -7.1160122,166.00191 -2.7741972,166.20711 -0.71542215,166.67158 C 2.0518068,167.2959 2.5788788,167.6486 5.5003478,170.83095 C 7.2560348,172.74341 10.730297,176.03706 13.220935,178.15017 L 17.749374,181.99218 L 19.205162,180.29001 C 20.005837,179.35382 20.670157,178.33425 20.68142,178.0243 C 20.692688,177.71435 18.685618,175.74589 16.221271,173.64995 C 8.7167918,167.26734 2.0000718,158.57966 -2.9271972,148.88257 C -17.391988,120.4152 -16.019324,85.231035 0.61749585,58.024343 C 3.8107838,52.80227 6.8127818,49.014236 11.83145,43.874165 C 21.451754,34.021143 32.717161,27.660883 46.053611,24.552897 C 52.206751,23.118944 64.785311,23.007418 70.843631,24.3331 C 96.396791,29.924639 117.21696,49.851805 125.91726,77.044548 C 129.44061,88.056771 130.3082,93.931447 130.3082,106.77683 C 130.3082,118.63563 129.71443,123.29866 127.00351,132.72958 C 122.45232,148.56247 115.19238,160.67211 103.77981,171.46683 L 98.093881,176.84492 L 99.924431,178.67546 L 101.75496,180.50599 L 105.70085,177.21245 C 107.87112,175.40099 110.59219,172.79618 111.74769,171.42398 C 112.90318,170.05178 114.15043,168.92088 114.51934,168.91089 C 114.88825,168.9009 116.55072,168.53527 118.21371,168.09839 C 126.23891,165.99007 141.02821,165.70939 149.20584,167.51021 C 157.33641,169.30066 164.82788,173.74876 164.82788,176.78588 C 164.82788,179.64695 160.67591,182.74929 153.74127,185.06973 C 149.72627,186.41322 139.84276,187.91068 134.99055,187.91068 L 132.07198,187.91068 L 132.07198,190.56884 L 132.07198,193.227 L 141.01686,193.21451 C 149.2793,193.20298 150.34622,193.30903 155.00111,194.60466 C 162.2054,196.60986 168.59668,199.83696 171.49015,202.93031 C 174.57869,206.23223 174.98992,208.23742 173.20361,211.28553 C 170.82136,215.3505 165.78048,218.39372 156.89088,221.13359 C 153.78426,222.0911 151.72552,222.9883 151.72552,223.38469 C 151.72552,223.9958 152.71662,227.26202 153.01515,227.63469 C 153.08784,227.72541 154.86078,227.31883 156.95505,226.73118 C 161.3657,225.49355 162.1541,225.70816 165.50718,229.05929 C 171.85748,235.40588 171.05211,243.81259 163.54754,249.51492 C 160.35834,251.93825 156.5664,253.35953 151.47631,254.03943 C 141.69165,255.34639 131.24629,250.45642 127.96173,243.03111 C 126.90601,240.64455 126.93275,240.6516 123.63103,241.88676 C 122.27132,242.39544 122.18559,243.66403 123.34641,246.09831 C 124.13177,247.74518 124.13447,248.0075 123.38256,249.58426 C 120.46908,255.69389 112.9867,259.97368 105.21871,259.97368 C 96.690511,259.97368 89.641211,255.71295 86.378541,248.58634 C 85.322031,246.27864 84.247191,240.12951 84.206921,236.16265 C 84.199991,235.47974 83.771591,235.2825 82.308201,235.28848 C 79.075001,235.30168 78.890701,235.63609 79.059631,241.18278 C 79.233111,246.87896 78.438491,250.53619 76.056241,255.00574 C 74.082701,258.70848 69.915751,262.67037 66.211111,264.36641 C 62.789971,265.93265 57.326351,266.37808 54.213711,265.34451 L 54.213711,265.34449 z M 32.523481,127.17056 C 37.338201,125.91648 41.268501,123.51341 45.697591,119.11562 C 49.143191,115.69436 50.185641,114.23922 52.381411,109.78564 C 56.286511,101.86511 57.137711,98.079907 57.137711,88.635099 C 57.137721,79.375489 56.271511,75.365097 52.729451,68.225651 C 50.016641,62.757642 46.863731,58.667059 43.062201,55.683369 C 34.006911,48.576189 23.100847,47.397158 13.441715,52.481172 C 8.7966908,54.926042 2.2800548,61.678944 -0.29299715,66.713839 C -2.5818442,71.192595 -4.1409642,75.70335 -5.0363192,80.436896 C -5.8325652,84.646498 -5.3596402,96.975403 -4.2482382,100.98156 C -3.0270522,105.38343 0.53814585,112.60475 3.2693538,116.20846 C 7.2291038,121.43316 13.991868,126.0882 19.501739,127.38172 C 22.630241,128.11618 29.308757,128.00788 32.523481,127.17056 L 32.523481,127.17056 z M 102.84363,126.24648 C 115.8089,120.93416 124.51404,106.14359 124.56558,89.339523 C 124.59403,80.068946 123.2755,74.388407 119.31388,66.713839 C 116.70026,61.650679 110.14856,54.850326 105.61529,52.495388 C 88.295891,43.498328 68.962891,54.512174 62.965531,76.79258 C 61.527331,82.135562 61.380391,94.137205 62.688741,99.40061 C 66.112171,113.17291 74.122401,122.92926 85.205841,126.82615 C 88.041151,127.82303 89.226511,127.95167 94.024731,127.78322 C 98.580691,127.62327 100.15147,127.34956 102.84363,126.24649 L 102.84363,126.24648 z"
         style="opacity:1;fill:url(#radialGradient3395);fill-opacity:1;fill-rule:nonzero;stroke:none;stroke-width:5;stroke-linejoin:miter;stroke-miterlimit:4;stroke-dasharray:none;stroke-dashoffset:0;stroke-opacity:1" />
      <path
         id="path4815"
         d="M 54.213711,265.34618 C 49.248061,263.70141 45.671881,261.01836 42.887371,256.84853 C 39.036801,251.08224 37.665461,244.23176 39.035541,237.60676 C 39.484321,235.43666 39.851511,233.59038 39.851511,233.50389 C 39.851511,233.19503 35.089871,232.33746 34.702871,232.57664 C 34.485811,232.71081 34.308201,233.13883 34.308201,233.52782 C 34.308201,233.91682 33.835431,235.49868 33.257601,237.04307 C 31.972591,240.47756 27.829041,245.11551 24.357767,247.00481 C 19.010128,249.91537 12.091643,250.65752 6.0149178,248.9725 C 1.5796578,247.74263 -1.3148202,245.97148 -4.3922932,242.60423 C -7.5935582,239.10152 -9.1184212,235.26584 -9.1067292,230.74533 C -9.0965452,226.80708 -8.1305032,223.90644 -5.7044292,220.52952 L -3.8936622,218.00908 L -5.7407982,216.18821 L -7.5879142,214.36738 L -9.2680202,216.28442 C -10.192084,217.33879 -11.707191,219.89021 -12.634929,221.95424 C -14.229562,225.50199 -14.44562,225.74633 -16.589438,226.42633 C -22.443412,228.28317 -31.358683,228.80612 -38.209656,227.69451 C -45.373998,226.53205 -52.485884,222.68963 -55.554644,218.32331 C -61.329329,210.10695 -52.338392,200.59252 -36.532624,198.19376 C -32.138883,197.52695 -30.961167,196.91408 -31.460871,195.55451 C -31.596546,195.18538 -31.707548,194.33499 -31.707548,193.66474 C -31.707548,192.53707 -31.897094,192.44612 -34.24731,192.44612 C -40.006262,192.44612 -48.33747,185.82293 -48.33747,181.24466 C -48.33747,175.21318 -39.916718,169.47798 -26.920147,166.6578 C -22.797332,165.76317 -5.3390652,165.76779 -0.90352715,166.66469 C 2.2825738,167.30894 2.5743938,167.4946 5.4514258,170.70801 C 8.0371668,173.59607 15.73998,180.51388 17.489882,181.5196 C 17.811222,181.7043 18.667648,180.96516 19.464327,179.81556 C 20.669648,178.07629 20.768864,177.68978 20.156666,177.11851 C 19.763625,176.75175 17.605706,174.85259 15.361282,172.89817 C 5.1338298,163.99222 -3.2100972,151.069 -7.9708052,136.76108 C -17.216598,108.9736 -13.3692,78.933168 2.4839928,55.130086 C 6.5733158,48.990083 14.928728,40.211465 20.536629,36.163062 C 46.031781,17.757851 77.644101,19.149664 101.69577,39.736318 C 114.62589,50.803656 124.76073,68.51676 128.52064,86.619351 C 130.24657,94.929016 130.72224,100.90638 130.40548,110.30439 C 130.02884,121.47924 128.49402,129.64442 125.00684,139.02476 C 120.04667,152.36742 113.74918,162.00341 103.80706,171.46327 L 98.121741,176.87279 L 99.956301,178.70733 L 101.79082,180.54187 L 104.96288,177.85126 C 106.70754,176.37142 109.39354,173.79716 110.9318,172.13067 C 113.55195,169.2921 113.96579,169.04423 117.48298,168.2068 C 126.84276,165.97827 140.82878,165.67205 149.20584,167.51225 C 157.32997,169.2969 164.82788,173.74784 164.82788,176.78588 C 164.82788,179.6506 160.68062,182.7457 153.71126,185.0822 C 149.63941,186.44731 139.99485,187.91068 135.06979,187.91068 L 132.07198,187.91068 L 132.07195,190.55635 L 132.07192,193.20202 L 141.01683,193.20202 C 149.25792,193.20202 150.35826,193.31239 155.00111,194.60466 C 162.2054,196.60986 168.59668,199.83696 171.49015,202.93031 C 174.57869,206.23223 174.98992,208.23742 173.20361,211.28553 C 170.82136,215.3505 165.78048,218.39372 156.89088,221.13359 C 153.78426,222.0911 151.72552,222.9883 151.72552,223.38469 C 151.72552,223.9958 152.71662,227.26202 153.01515,227.63469 C 153.08784,227.72541 154.86078,227.31883 156.95505,226.73118 C 161.3657,225.49355 162.1541,225.70816 165.50718,229.05929 C 171.85748,235.40588 171.05211,243.81259 163.54754,249.51492 C 160.35834,251.93825 156.5664,253.35953 151.47631,254.03943 C 141.69165,255.34639 131.24629,250.45642 127.96173,243.03111 C 126.90601,240.64455 126.93275,240.6516 123.63103,241.88676 C 122.27132,242.39544 122.18559,243.66403 123.34641,246.09831 C 124.13177,247.74518 124.13447,248.0075 123.38256,249.58426 C 120.46908,255.69389 112.9867,259.97368 105.21871,259.97368 C 96.690511,259.97368 89.641211,255.71295 86.378541,248.58634 C 85.322031,246.27864 84.247191,240.12951 84.206921,236.16265 C 84.199991,235.47974 83.771591,235.2825 82.308201,235.28848 C 79.123431,235.30148 78.951861,235.61421 79.083851,241.16525 C 79.219801,246.8821 78.407911,250.59355 76.056241,255.00574 C 74.082701,258.70848 69.915751,262.67037 66.211111,264.36641 C 62.792551,265.93147 57.328061,266.37774 54.213711,265.34618 L 54.213711,265.34618 z M 35.324261,126.22694 C 47.007721,121.52605 55.431031,108.94458 57.013541,93.830705 C 59.191801,73.027147 48.515891,54.396389 31.943071,50.07972 C 18.357837,46.541216 3.6362298,55.757206 -2.5102392,71.648108 C -6.4026942,81.711534 -6.5448092,94.719872 -2.8723182,104.78936 C 1.1633808,115.85473 9.7150048,124.48741 19.328425,127.20053 C 23.451507,128.36415 31.181861,127.89365 35.324251,126.22694 L 35.324261,126.22694 z M 101.58379,126.70931 C 112.2368,122.95491 121.00896,111.81765 123.71666,98.609101 C 124.72241,93.702932 124.75586,83.795495 123.78213,79.219228 C 121.87006,70.232942 118.72207,64.18532 112.93168,58.374221 C 108.16062,53.586104 104.40997,51.315737 99.269171,50.103965 C 83.453571,46.375965 68.114201,57.657855 62.982141,76.79258 C 61.439021,82.546064 61.440201,94.638828 62.984461,100.47762 C 66.465781,113.64042 75.683001,124.22586 86.217221,127.15913 C 89.865461,128.17499 98.109751,127.93366 101.58379,126.70931 z"
         style="opacity:1;fill:#ffffff;fill-opacity:1;fill-rule:nonzero;stroke:none;stroke-width:5;stroke-linejoin:miter;stroke-miterlimit:4;stroke-dasharray:none;stroke-dashoffset:0;stroke-opacity:1" />
      <path
         id="path4817"
         d="M 54.213711,265.34618 C 49.167291,263.67466 45.735471,261.11359 42.947421,256.93844 C 38.523511,250.31358 37.400001,242.51911 39.667171,234.18124 C 39.849781,233.50966 39.423781,233.26263 37.615241,232.99142 C 36.359931,232.80318 35.176361,232.66217 34.985091,232.67808 C 34.793821,232.69399 34.253711,233.94682 33.784861,235.46216 C 32.663661,239.08587 31.315241,241.19397 28.336133,243.98058 C 22.609191,249.33747 14.151969,251.22884 6.0149178,248.9725 C 1.5796578,247.74263 -1.3148202,245.97148 -4.3922932,242.60423 C -7.5935582,239.10152 -9.1184212,235.26584 -9.1067292,230.74533 C -9.0965452,226.80708 -8.1305032,223.90644 -5.7044292,220.52952 L -3.8936622,218.00908 L -5.7398612,216.18821 L -7.5860392,214.36738 L -9.0990652,216.13116 C -9.9312162,217.10124 -11.446741,219.65466 -12.466896,221.80543 L -14.321722,225.71593 L -17.849281,226.8448 C -20.963112,227.84128 -22.41116,227.97118 -30.195737,227.95237 C -38.499788,227.93231 -39.249994,227.84948 -43.046131,226.5336 C -47.768132,224.8968 -50.706437,223.26969 -53.518401,220.73453 C -62.777487,212.38688 -54.386407,201.06659 -36.816885,198.20272 C -34.499455,197.82497 -32.337868,197.29555 -32.013352,197.02623 C -31.672626,196.74345 -31.505737,195.67239 -31.618367,194.49134 L -31.813415,192.44612 L -34.33561,192.44612 C -40.185286,192.44612 -48.33747,185.84682 -48.33747,181.11143 C -48.33747,175.26398 -40.443624,169.87472 -27.172115,166.66149 C -23.335653,165.73262 -4.8194002,165.74366 -0.71542215,166.67726 C 2.0735818,167.31172 2.6210238,167.68529 6.3396958,171.4916 C 8.5570188,173.76117 11.920355,176.9538 13.813772,178.58634 C 17.558024,181.81469 17.906496,181.84601 19.920707,179.13517 L 20.953869,177.74468 L 18.434184,175.69103 C 13.904304,171.999 6.9119818,164.51316 3.4599578,159.65994 C 1.5989388,157.04352 -1.3858402,151.95478 -3.1728812,148.35163 C -20.338069,113.74202 -14.419994,71.043611 11.217665,44.525145 C 19.248158,36.218757 27.526432,30.709874 37.421771,27.087292 C 63.163151,17.66363 91.334011,25.890714 110.12643,48.320139 C 121.00707,61.30656 128.0184,78.11804 130.0926,96.194154 C 130.85373,102.82699 130.41694,117.49555 129.28233,123.40675 C 125.47333,143.25117 117.44441,158.41777 103.85416,171.44048 L 98.170901,176.8864 L 99.850221,178.61901 C 100.77384,179.57195 101.70073,180.35163 101.90998,180.35163 C 102.11924,180.35163 104.96608,177.78918 108.23632,174.65729 C 114.18209,168.96308 114.1823,168.96294 117.96174,168.10274 C 127.99115,165.82004 141.83634,165.66436 150.20145,167.74022 C 158.32085,169.75511 164.82788,173.89904 164.82788,177.05491 C 164.82788,179.82443 159.28147,183.58679 152.22946,185.60095 C 148.46334,186.6766 139.62412,187.89019 135.47355,187.90145 L 132.07198,187.91068 L 132.07198,190.43037 L 132.07198,192.95005 L 139.58671,192.95005 C 147.78302,192.95005 152.27039,193.60485 158.5728,195.72049 C 167.11463,198.58788 173.41716,203.22481 174.16085,207.18902 C 175.102,212.20575 168.5634,217.60033 157.5208,220.91773 C 151.85363,222.62025 151.57897,222.85897 152.29063,225.46352 C 152.59213,226.56694 152.89827,227.53403 152.97095,227.6126 C 153.04365,227.69115 154.82406,227.28331 156.92747,226.70625 C 161.35831,225.49068 162.15513,225.7092 165.50718,229.05929 C 171.76761,235.31606 171.07934,243.60534 163.82321,249.34098 C 160.74786,251.7719 156.78307,253.31084 151.67903,254.05477 C 142.17107,255.44058 131.13234,250.41927 128.07792,243.31909 L 127.04891,240.92711 L 124.98143,241.45187 C 123.84431,241.74052 122.79668,242.28226 122.65335,242.65577 C 122.51001,243.02927 122.78522,244.42627 123.2649,245.76021 C 124.0779,248.02107 124.0808,248.29431 123.30768,249.78935 C 118.32134,259.43188 104.00232,263.00872 93.942341,257.12469 C 88.597631,253.9986 85.448611,248.60784 84.660471,241.23519 C 84.025721,235.29756 84.018901,235.28076 82.239241,235.28076 C 79.241271,235.28076 79.158591,235.4349 79.158591,241.02408 C 79.158591,244.00612 78.835381,247.39654 78.386971,249.11809 C 76.639771,255.82605 71.899871,261.76201 66.211111,264.36641 C 62.792551,265.93147 57.328061,266.37774 54.213711,265.34618 L 54.213711,265.34618 z M 34.560171,126.39932 C 46.779011,121.81502 55.368441,109.32048 56.948141,93.832852 C 59.169621,72.053123 47.305681,52.711753 29.905791,49.746668 C 14.289811,47.085584 -1.3955812,60.679002 -4.7224122,79.75648 C -7.4024652,95.124982 -3.3990892,109.37438 6.3396958,119.13043 C 10.605306,123.40359 14.532452,125.85274 19.246697,127.1798 C 23.117422,128.26941 30.590939,127.88851 34.560171,126.39932 z M 98.365411,127.43058 C 103.60895,126.44233 108.18487,123.77745 112.98729,118.91522 C 116.75856,115.09699 117.72298,113.74536 119.88997,109.24103 C 123.22138,102.31634 124.05077,98.867324 124.37128,90.60569 C 124.67505,82.775451 123.92891,77.906084 121.43392,71.436369 C 117.33915,60.818291 108.66254,52.532342 99.084211,50.092944 C 83.637771,46.159065 67.507691,58.307782 63.011221,77.262083 C 61.515441,83.567348 61.515441,93.702851 63.011221,100.00812 C 65.702481,111.35277 72.977501,121.07597 82.057981,125.46445 C 86.982801,127.84455 92.585081,128.52001 98.365401,127.43059 L 98.365411,127.43058 z"
         style="opacity:1;fill:#1b86ff;fill-opacity:1;fill-rule:nonzero;stroke:none;stroke-width:5;stroke-linejoin:miter;stroke-miterlimit:4;stroke-dasharray:none;stroke-dashoffset:0;stroke-opacity:1" />
      <path
         transform="translate(-71.644234,4.1752569)"
         d="M 144.62992,144.37796 A 12.598426,13.354331 0 1 1 119.43307,144.37796 A 12.598426,13.354331 0 1 1 144.62992,144.37796 z"
         sodipodi:ry="13.354331"
         sodipodi:rx="12.598426"
         sodipodi:cy="144.37796"
         sodipodi:cx="132.03149"
         id="path4819"
         style="opacity:1;fill:#ff4a1b;fill-opacity:1;fill-rule:nonzero;stroke:none;stroke-width:5;stroke-linejoin:miter;stroke-miterlimit:4;stroke-dasharray:none;stroke-dashoffset:0;stroke-opacity:1"
         sodipodi:type="arc" />
    </g>
  </g>
</svg>
